<?xml version="1.0" standalone="no"?>
<!DOCTYPE svg PUBLIC "-//W3C//DTD SVG 1.1//EN" "http://www.w3.org/Graphics/SVG/1.1/DTD/svg11.dtd" >
<!--
2013-9-30: Created.
-->
<svg>
<metadata>
Created by iconfont
</metadata>
<defs>

<font id="iconfont" horiz-adv-x="1024" >
  <font-face
    font-family="iconfont"
    font-weight="500"
    font-stretch="normal"
    units-per-em="1024"
    ascent="896"
    descent="-128"
  />
    <missing-glyph />
    
    <glyph glyph-name="x" unicode="x" horiz-adv-x="1001"
d="M281 543q-27 -1 -53 -1h-83q-18 0 -36.5 -6t-32.5 -18.5t-23 -32t-9 -45.5v-76h912v41q0 16 -0.5 30t-0.5 18q0 13 -5 29t-17 29.5t-31.5 22.5t-49.5 9h-133v-97h-438v97zM955 310v-52q0 -23 0.5 -52t0.5 -58t-10.5 -47.5t-26 -30t-33 -16t-31.5 -4.5q-14 -1 -29.5 -0.5
t-29.5 0.5h-32l-45 128h-439l-44 -128h-29h-34q-20 0 -45 1q-25 0 -41 9.5t-25.5 23t-13.5 29.5t-4 30v167h911zM163 247q-12 0 -21 -8.5t-9 -21.5t9 -21.5t21 -8.5q13 0 22 8.5t9 21.5t-9 21.5t-22 8.5zM316 123q-8 -26 -14 -48q-5 -19 -10.5 -37t-7.5 -25t-3 -15t1 -14.5
t9.5 -10.5t21.5 -4h37h67h81h80h64h36q23 0 34 12t2 38q-5 13 -9.5 30.5t-9.5 34.5q-5 19 -11 39h-368zM336 498v228q0 11 2.5 23t10 21.5t20.5 15.5t34 6h188q31 0 51.5 -14.5t20.5 -52.5v-227h-327z" />
    

    
    <glyph glyph-name="shoucang" unicode="&#58880;" d="M781.186088 279.968127q17.338645-80.573705 30.59761-145.848606 6.119522-27.537849 11.219124-55.075697t9.689243-49.976096 7.649402-38.247012 4.079681-19.888446q3.059761-20.398406-9.179283-27.027888t-27.537849-6.629482q-5.099602 0-14.788845 3.569721t-14.788845 5.609562l-266.199203 155.027888q-72.414343-42.836653-131.569721-76.494024-25.498008-14.278884-50.486056-28.557769t-45.386454-26.517928-35.187251-20.398406-19.888446-10.199203q-10.199203-5.099602-20.908367-3.569721t-19.378486 7.649402-12.749004 14.788845-2.039841 17.848606q1.01992 4.079681 5.099602 19.888446t9.179283 37.737052 11.729084 48.446215 13.768924 54.055777q15.298805 63.23506 34.677291 142.788845-60.175299 52.015936-108.111554 92.812749-20.398406 17.338645-40.286853 34.167331t-35.697211 30.59761-26.007968 22.438247-11.219124 9.689243q-12.239044 11.219124-20.908367 24.988048t-6.629482 28.047809 11.219124 22.438247 20.398406 10.199203l315.155378 28.557769 117.290837 273.338645q6.119522 16.318725 17.338645 28.047809t30.59761 11.729084q10.199203 0 17.848606-4.589641t12.749004-10.709163 8.669323-12.239044 5.609562-10.199203l114.231076-273.338645 315.155378-29.577689q20.398406-5.099602 28.557769-12.239044t8.159363-22.438247q0-14.278884-8.669323-24.988048t-21.928287-26.007968z"  horiz-adv-x="1024" />

    
    <glyph glyph-name="zuojiantou" unicode="&#58881;" d="M393.3125 656.6875l-312.5-312.5c-24.4063-24.4063-24.4063-63.9688 0-88.375l312.5-312.5c24.4063-24.4063 63.9688-24.4063 88.375 0 24.4063 24.4063 24.4063 63.9688 0 88.375l-205.8125 205.8125h599.125c34.5313 0 62.5 27.9688 62.5 62.5 0 34.5313-27.9688 62.5-62.5 62.5h-599.125l205.8125 205.8125c12.1875 12.2188 18.3125 28.1875 18.3125 44.1875s-6.0938 32-18.3125 44.1875c-24.4063 24.4063-63.9688 24.4063-88.375 0z"  horiz-adv-x="1000" />

    
    <glyph glyph-name="shoucang1" unicode="&#58907;" d="M-49.090984-71.816448M1040.852568-71.816448M32.096856-37.842176M280.329816 169.028352 242.675288-150.340864 532.75708-15.993088 822.829656-150.340864 784.718424 169.493248 1001.806424 405.184256 688.955992 468.408064 532.75708 749.647616 377.024088 468.408064 63.24284 405.184256ZM1032.953432-37.842176"  horiz-adv-x="1064" />

    
    <glyph glyph-name="12" unicode="&#58882;" d="M944.683688-44.900648c-27.364466-39.579133-81.754729-49.513428-121.333863-22.081228l-173.330864 140.908939c-25.377607 17.520483-38.495392 46.059003-37.547118 74.755567-46.171892-49.49085-106.793668-82.793315-174.730696-95.120871-83.425497-15.217533-167.686378 2.95771-237.249019 51.093884-69.585219 48.136173-116.276403 120.543635-131.493937 203.923976-15.217533 83.425497 2.935133 167.731534 51.116462 237.339331C219.638224 689.695286 417.579045 725.75226 561.37796 626.22869c130.545663-90.356926 172.247123-261.836398 104.400406-400.239185 26.506504 11.153504 57.935 8.963443 83.448075-8.647352l173.443754-140.931517C962.249328 49.001014 972.138466-5.321515 944.683688-44.900648zM598.405786 405.055166c-10.566477 58.16078-43.12387 108.645059-91.643868 142.195881-100.223486 69.404595-238.310182 44.320501-307.737355-55.925563-69.359439-100.336376-44.252767-238.377916 55.993297-307.692199 100.223486-69.382017 238.287604-44.320501 307.714777 55.970719C596.351193 288.078846 609.017419 346.84923 598.405786 405.055166z"  horiz-adv-x="1024" />

    
    <glyph glyph-name="shezhi" unicode="&#58968;" d="M510.801-216.519c-7.15 0-14.308-0.186-21.447 0.038-23.834 0.739-37.453 10.93-45.958 33.056-9.232 24.022-19.618 47.61-28.467 71.763-13.691 37.366-91.507 66.142-126.744 49.097-21.715-10.505-43.947-19.933-65.944-29.85-21.192-9.56-35.953-7.118-52.393 8.985-11.396 11.166-22.662 22.463-33.815 33.858-14.412 14.735-16.956 30.864-8.997 49.829 11.43 27.253 24.414 54.082 33.087 82.211 10.892 35.351-16.392 95.538-49.604 111.574-23.124 11.16-47.703 19.355-71.771 28.498-25.135 9.549-33.965 21.341-34.42 47.861-0.236 13.749-0.311 27.51 0.046 41.252 0.66 25.38 9.899 36.985 34.155 46.334 24.528 9.455 49.704 17.962 72.783 30.283 39.237 20.946 61.496 82.817 45.875 124.376-8.472 22.539-19.419 44.15-29.332 66.145-9.394 20.835-6.801 36.274 9.161 52.487 10.809 10.974 21.701 21.865 32.674 32.679 16.169 15.936 31.823 18.335 52.505 9.524 26.676-11.36 53.039-24.007 80.642-32.494 35.359-10.876 95.211 16.218 111.472 49.686 11.459 23.584 19.831 48.689 29.18 73.268 8.577 22.554 21.33 32.198 45.727 32.774 15.391 0.362 30.798 0.225 46.193-0.060 20.381-0.376 33.883-10.449 41.223-29.476 9.269-24.014 19.684-47.605 28.306-71.841 14.808-41.597 95.71-70.458 132.983-50.42 19.774 10.632 40.798 18.936 61.262 28.29 20.612 9.422 36.443 6.732 52.507-9.117 11.357-11.203 22.7-22.422 33.813-33.863 14.689-15.119 17.080-30.356 8.933-49.708-11.246-26.73-24.047-53.015-32.685-80.587-10.915-34.838 11.95-91.41 44.121-108.963 23.905-13.041 49.92-22.394 75.441-32.233 26.3-10.138 35.903-22.273 36.336-50.195 0.19-12.65 0.221-25.306-0.034-37.955-0.53-25.619-10.59-38.897-34.706-48.234-24.495-9.489-49.707-17.812-72.798-30.063-38.663-20.507-61.377-81.551-46.552-122.824 7.947-22.124 18.96-43.166 28.855-64.57 11.076-23.953 8.576-39.045-10.163-57.926-10.074-10.151-20.118-20.338-30.348-30.337-16.161-15.782-31.851-18.262-52.575-9.387-25.658 10.983-50.894 23.51-77.437 31.744-39.193 12.166-98.432-14.758-116.387-51.758-9.541-19.65-16.47-40.611-23.944-61.203-12.76-35.161-22.881-42.493-60.855-42.665-3.298-0.013-6.598 0-9.9 0 0 0.037 0 0.078 0 0.117zM257.861 290.522c-0.601-138.92 111.57-252.639 249.803-253.245 141.763-0.624 255.514 110.606 256.16 250.469 0.646 140.858-110.393 254.687-249.203 255.465-143.944 0.808-256.15-109.616-256.761-252.689zM510.48 138.292c-81.919-0.89-150.8 67.085-152.296 150.281-1.495 83.151 68.128 153.887 151.928 154.362 82.516 0.468 151.708-67.448 152.708-149.887 1.040-85.951-65.769-153.82-152.341-154.756z"  horiz-adv-x="1024" />

    
    <glyph glyph-name="shouyenormal" unicode="&#58912;" d="M521.344 705.205333c1.194667 0 2.410667-0.490667 3.605333-1.450667l1.514667-1.216 1.621333-1.088 418.752-279.936c1.728-1.813333 2.112-3.968 1.173333-6.656-1.301333-3.712-3.562667-4.202667-5.632-4.202667l-55.893333 0-42.666667 0 0-42.666667 0-466.730667c0-3.562667-2.709333-6.464-6.016-6.464l-195.776 0c-3.306667 0-5.994667 2.88-6.016 6.357333l-0.704 172.629333 0 6.506667c0.064 20.864 0.149333 46.826667-19.52 66.56-8.277333 8.32-23.253333 18.218667-47.488 18.218667L474.24 165.066667c-28.650667 0-50.816-14.037333-60.8-38.485333-6.208-15.210667-6.208-30.741333-6.186667-45.781333l-0.021333-6.805333-1.130667-172.778667c-0.042667-3.541333-2.730667-6.4-6.016-6.4L204.906667-105.184c-3.306667 0-6.016 2.901333-6.016 6.464L198.890667 367.989333l0 42.666667-42.666667 0-55.893333 0c-2.069333 0-4.352 0.490667-5.632 4.202667-0.938667 2.688-0.576 4.842667 1.173333 6.656L514.602667 701.472l1.621333 1.088 1.514667 1.216C518.912 704.714667 520.128 705.205333 521.344 705.205333M521.344 747.872c-10.709333 0-21.418667-3.648-30.442667-10.944L69.888 455.477333c-16.469333-13.312-22.485333-34.538667-15.488-54.634667 6.997333-20.096 24.832-32.853333 45.930667-32.853333l55.893333 0 0-466.730667c0-27.136 21.802667-49.130667 48.682667-49.130667l195.178667 0c26.730667 0 48.426667 21.696 48.682667 48.682667l1.130667 172.906667c0.256 26.986667-2.389333 48.682667 24.341333 48.682667l94.037333 0c26.794667 0 24.192-21.824 24.341333-48.853333l0.704-172.565333c0.149333-27.029333 21.888-48.853333 48.682667-48.853333l195.776 0c26.88 0 48.682667 21.994667 48.682667 49.130667L886.464 367.989333l55.893333 0c21.098667 0 38.933333 12.757333 45.930667 32.853333 6.997333 20.096 0.981333 41.301333-15.488 54.634667L551.786667 736.928C542.762667 744.224 532.053333 747.872 521.344 747.872L521.344 747.872z"  horiz-adv-x="1024" />

    
    <glyph glyph-name="yijian" unicode="&#58940;" d="M879.526 866.285l-733.772 0c-80.182 0-145.115-48.965-145.115-109.473l0-553.366c0-60.449 65-109.481 145.115-109.481l366.528 0 289.777-217.53-15.565 217.53 92.965 0c80.182 0 145.18 49.033 145.18 109.481l0 553.366c0.05 60.442-64.948 109.473-145.114 109.473zM225.345 399.118c-49.375 0-89.364 40.349-89.364 90.157s39.991 90.149 89.364 90.149c49.316 0 89.307-40.342 89.307-90.149s-39.991-90.157-89.307-90.157zM505.99 399.059c-49.382 0-89.366 40.407-89.366 90.149 0 49.807 39.983 90.148 89.366 90.148 49.375 0 89.373-40.34 89.373-90.148 0-49.816-39.999-90.149-89.373-90.149zM792.795 400.417c-49.3 0-89.3 40.342-89.3 90.157 0 49.8 40 90.149 89.3 90.149 49.382 0 89.431-40.349 89.431-90.149 0-49.815-40.049-90.157-89.431-90.157z"  horiz-adv-x="1025" />

    
    <glyph glyph-name="shoucang2" unicode="&#58997;" d="M729.095945 266.08852l52.357462-320.689836-274.317693 151.46569-274.317693-151.46569 52.357462 320.689836L64.04413 492.503203l305.689191 46.642297L507.135714 831.582875l137.402393-292.437375 305.689191-46.642297L729.095945 266.08852z"  horiz-adv-x="1024" />

    
    <glyph glyph-name="tupian4" unicode="&#59177;" d="M966.817684 869.052632 107.627789 869.052632c-44.894316 0-81.650526-33.845895-81.650526-79.440842l0-807.882105c0-45.541053 36.756211-82.782316 81.650526-82.782316l865.926737 0c44.948211 0 78.309053 37.241263 78.309053 82.782316L1051.863579 789.611789C1051.917474 835.206737 1011.765895 869.052632 966.817684 869.052632L966.817684 869.052632zM347.782737 739.112421c71.087158 0 128.754526-58.368 128.754526-130.317474 0-71.895579-57.667368-130.263579-128.754526-130.263579-71.194947 0-128.862316 58.368-128.862316 130.263579C218.920421 680.744421 276.587789 739.112421 347.782737 739.112421L347.782737 739.112421zM193.050947 25.815579c-9.377684 0-18.863158 3.233684-26.516211 9.916632-17.192421 14.928842-19.186526 41.067789-4.473263 58.421895l189.817263 243.981474c13.958737 16.599579 38.049684 19.294316 55.349895 6.413474l111.669895-122.556632 274.917053 337.381053c14.012632 17.893053 86.501053 102.076632 130.209684 6.629053 0.107789 0.107789 0.107789-108.005053 0.215579-236.921263 0.107789-134.629053 0.107789-303.157895 0.107789-303.157895C923.378526 25.977263 193.428211 25.815579 193.050947 25.815579L193.050947 25.815579z"  horiz-adv-x="1078" />

    
    <glyph glyph-name="iconfontalignjustify" unicode="&#58913;" d="M128 682.66h768q17.674 0 30.167-12.493t12.493-30.167-12.493-30.167-30.167-12.493h-768q-17.674 0-30.167 12.493t-12.493 30.167 12.493 30.167 30.167 12.493zM128 170.66h768q17.674 0 30.167-12.493t12.493-30.167-12.493-30.167-30.167-12.493h-768q-17.674 0-30.167 12.493t-12.493 30.167 12.493 30.167 30.167 12.493zM128 341.34h768q17.674 0 30.167-12.493t12.493-30.167-12.493-30.167-30.167-12.493h-768q-17.674 0-30.167 12.493t-12.493 30.167 12.493 30.167 30.167 12.493zM128 512h768q17.674 0 30.167-12.493t12.493-30.167-12.493-30.167-30.167-12.493h-768q-17.674 0-30.167 12.493t-12.493 30.167 12.493 30.167 30.167 12.493z"  horiz-adv-x="1024" />

    
    <glyph glyph-name="wode" unicode="&#58965;" d="M512-75.522c-405.080 0-406.099 31.238-406.099 31.238 23.103 202.356 197.562 359.242 406.099 359.242 205.219 0 378.744-161.539 406.099-359.242 0-5.542 0.499-31.238-406.099-31.238zM512 361.817c-129.39 0-234.288 104.898-234.288 234.288s104.898 234.288 234.288 234.288 234.288-104.898 234.288-234.288-104.898-234.288-234.288-234.288z"  horiz-adv-x="1024" />

    
    <glyph glyph-name="wode1" unicode="&#58990;" d="M512 274.866793c125.761567 0 241.904267 109.90067 254.89997 270.556211 13.609673 168.125512-98.030579 326.734486-254.89997 326.734486-156.767063 0-268.509643-158.608974-254.89997-326.734486C270.198061 384.665134 386.238433 274.866793 512 274.866793L512 274.866793zM509.748776 235.777356C228.24343 235.777356 0.051164 123.830119 0.051164-14.210852c0-47.173379 43.387229-65.387829 171.093035-79.202158 98.644549-10.64215 216.526831-10.64215 340.855801-10.64215 127.398821 0 253.774358 0 342.595383 10.64215 125.761567 15.04227 169.353453 32.02878 169.353453 79.202158C1023.948836 123.830119 791.254122 235.777356 509.748776 235.777356L509.748776 235.777356z"  horiz-adv-x="1024" />

    
    <glyph glyph-name="jiudian" unicode="&#59188;" d="M1023.9872 495.8816c-0.0048 49.8992-37.232 87.1168-87.2496 87.176-63.488 0.0752-126.976 0.0176-190.464 0.0192-1.9696 0-3.9408 0-6.4192 0-0.1104 2.4688-0.2864 4.56-0.2864 6.6528-0.0144 73.1536 0.0368 146.3056-0.032 219.4592-0.0384 40.872-26.0368 74.5536-64.8784 84.304-3.8528 0.9664-7.7696 1.6768-11.6576 2.5072-195.6656 0-391.3312 0-586.9984 0-4.8192-1.1232-9.7552-1.8896-14.4384-3.4272C27.5008 881.3808 7.1456 858.1872 0.8928 822.7728 0.7248 821.824 0.304 820.9216 0 819.9984 0 504 0 188 0-127.9984c341.088 0 682.176 0 1023.9968 0 0 1.9872 0 3.7408 0 5.4944C1023.9968 83.6256 1024.0096 289.7536 1023.9872 495.8816zM682.7248-68.1392c-208.7456 0-416.8576 0-625.792 0 0 1.7328 0 3.4768 0 5.2208 0 270.1616-0.016 540.3216 0.0176 810.4832 0.0048 41.4448 27.28 78.5568 65.4176 88.7216 6.8304 1.8208 14.1248 2.6672 21.2048 2.6752 150.8304 0.1488 301.6608 0.168 452.4912 0.0752 41.1248-0.0256 77.6752-31.8672 84.8672-73.6768 1.1232-6.5328 1.72-13.2416 1.7216-19.8688 0.0848-268.9952 0.072-537.9888 0.072-806.984C682.7248-63.6128 682.7248-65.7312 682.7248-68.1392zM967.0512-63.9888c0-1.296-0.1584-2.5904-0.2608-4.1568-75.6512 0-151.0496 0-226.968 0-0.0944 1.9024-0.2576 3.6672-0.2576 5.4336-0.0112 191.128 0.0048 382.2544-0.1152 573.3824-0.0032 4.3488 1.2816 6.5232 5.4768 7.0944 7.5696 1.032 15.1264 2.9504 22.6992 3.0128 38.1568 0.312 76.3168 0.2704 114.4752 0.1104 46.7824-0.1952 84.8112-37.7232 84.8672-84.48C967.1664 269.6096 967.0576 102.8112 967.0512-63.9888zM568.7824 384.0048c31.3632-0.0304 57.0192 25.4976 57.0544 56.776 0.0368 31.2912-25.5792 57.0016-56.8448 57.056-31.3184 0.0544-56.9472-25.5056-56.9904-56.8384C511.96 409.6112 537.44 384.0352 568.7824 384.0048zM568.9424 583.0784c31.2992 0.0192 56.928 25.6848 56.8944 56.976-0.0336 31.2912-25.7008 56.896-57.0064 56.8672-31.3424-0.0288-56.8496-25.6048-56.8272-56.9808C512.024 608.5808 537.5808 583.0592 568.9424 583.0784zM369.76 583.0768c31.3088-0.0144 56.9456 25.5968 56.96 56.9024 0.0144 31.2928-25.6304 56.944-56.9264 56.9408-31.3792-0.0032-56.8464-25.4944-56.8512-56.9072C312.9376 608.592 338.3856 583.0912 369.76 583.0768zM569.1888 298.736c-31.1312 0.2848-57.08-25.4224-57.1872-56.6576-0.1072-31.4752 25.208-57.032 56.5856-57.1248 31.496-0.0928 57.0688 25.1552 57.2512 56.5216C626.0208 272.7104 600.5568 298.448 569.1888 298.736zM369.912 384.0032c31.304 0.0528 56.8912 25.7344 56.808 57.0192-0.0832 31.28-25.7936 56.872-57.0768 56.8176-31.328-0.056-56.768-25.6672-56.6992-57.0832C313.0112 409.328 338.4832 383.952 369.912 384.0032zM170.6592 583.0784c31.336-0.0144 56.8848 25.544 56.8896 56.9136 0.0064 31.3616-25.5488 56.9376-56.8784 56.928-31.3952-0.0096-56.8032-25.4688-56.8064-56.9168C113.864 608.5504 139.2624 583.0928 170.6592 583.0784zM370.0176 298.736c-31.256 0.224-57.0064-25.3664-57.0736-56.7152-0.0672-31.544 25.1776-57.0048 56.5904-57.0736 31.4976-0.0688 56.9504 25.1168 57.184 56.5856C426.9504 272.6784 401.3424 298.5136 370.0176 298.736zM113.8896 442.3984c-0.5568-31.9264 24.36-58.016 55.7696-58.392 31.7728-0.3808 57.4368 24.6112 57.8896 56.3728 0.44 30.9728-24.7232 56.8448-55.8736 57.4432C140.584 498.4208 114.4288 473.3344 113.8896 442.3984zM171.0176 298.7328c-31.2464 0.304-57.0112-25.216-57.1488-56.6048-0.1376-31.5568 25.048-57.0688 56.4464-57.1808 31.5536-0.112 56.9296 24.9296 57.2336 56.4752C227.8512 272.6496 202.4224 298.4272 171.0176 298.7328z"  horiz-adv-x="1025" />

    
    <glyph glyph-name="wode2" unicode="&#58884;" d="M982.858998 198.267878c-25.851784 33.177634-63.259766 61.080124-109.485577 82.654488-92.450598 42.704614-220.170468 63.09706-361.246531 63.642482-141.075039-0.544399-268.796956-20.938891-361.243461-63.557548-46.222741-21.624507-83.626629-49.485041-109.472274-82.608439C15.565511 165.590642 1.278109 127.518534 1.283226 92.809011c0.011256-72.375377 57.180304-102.489232 149.616576-119.192659 46.218648-8.785084 101.255125-15.113209 162.373111-21.372773 61.117986-5.884011 128.316457-11.69946 198.853977-10.689457 70.53752-1.013073 137.737014 4.804423 198.857047 10.666944 61.121056 6.240121 116.163673 12.525268 162.388461 21.162995 92.450598 16.655332 149.632949 46.667879 149.632949 119.135354C1023.00637 127.268848 1008.710782 165.406446 982.858998 198.267878zM512.641613 381.482667c118.202099 0 214.024491 95.822392 214.024491 214.024491s-95.822392 214.024491-214.024491 214.024491-214.023468-95.822392-214.023468-214.024491S394.439514 381.482667 512.641613 381.482667z"  horiz-adv-x="1024" />

    
    <glyph glyph-name="xingzhuang5kaobei2" unicode="&#58921;" d="M648.190908 8.344487C648.054393-66.841221 587.57819-127.761099 511.84642-127.761099 436.660712-127.761099 375.672577-67.080123 375.536062 8.344487 375.536062 8.344487 648.190908 8.344487 648.190908 8.344487 648.190908 8.344487 648.190908 8.344487 648.190908 8.344487 648.190908 8.344487 648.190908 8.344487 648.190908 8.344487 648.190908 8.344487 648.190908 8.344487 648.190908 8.344487ZM602.970271 807.435809C602.970271 856.239968 562.220504 896 511.948807 896 461.745367 896 420.893214 856.342354 420.893214 807.435809 420.893214 802.453006 421.336888 797.57259 422.12185 792.82869 296.425543 750.20184 205.062792 641.160379 205.062792 486.318091 205.062792 486.318091 205.062792 315.674177 205.062792 315.674177 205.062792 315.674177 193.288362 167.111585 148.920944 165.57579 122.505266 165.57579 102.232769 145.746967 102.232769 121.310759 102.232769 96.669777 122.607652 77.045727 147.760565 77.045727 147.760565 77.045727 511.948807 77.045727 511.948807 77.045727 511.948807 77.045727 830.609252 77.045727 830.609252 77.045727 830.609252 77.045727 876.137048 77.045727 876.137048 77.045727 901.392348 77.045727 921.630716 96.840421 921.630716 121.310759 921.630716 145.917611 901.255833 165.57579 876.137048 165.57579 830.609252 165.57579 819.380883 315.674177 819.380883 315.674177 819.380883 315.674177 819.380883 486.318091 819.380883 486.318091 819.380883 641.331023 734.161312 750.440741 601.775763 792.931076 602.560725 797.640848 602.970271 802.521264 602.970271 807.435809 602.970271 807.435809 602.970271 807.435809 602.970271 807.435809 602.970271 807.435809 602.970271 807.435809 602.970271 807.435809Z"  horiz-adv-x="1024" />

    
    <glyph glyph-name="book" unicode="&#60423;" d="M822.5 832.5 562.6 832.5l-72 0-121 0-72 0-93.1 0c-39.8 0-72-32.2-72-72l0-753.1c0-39.8 32.2-72 72-72l618.1 0c39.8 0 72 32.2 72 72L894.6 760.5C894.5 800.3 862.2 832.5 822.5 832.5zM490.6 760.5l0-209.9-8.7 8.7-33.3 33.3c-9.5 9.5-25 9.6-34.6 0.1l-44.4-43.9L369.6 760.5 490.6 760.5zM297.6 760.5l0-277.3c0-19.7 15.9-35.6 35.6-35.6l0 0c23.3 0 45.7 9.2 62.3 25.6l35.5 35.2 34.9-34.9c15.9-15.9 37.3-25.2 59.8-25.9l1.4 0c19.7 0 35.6 15.9 35.6 35.6L562.7 760.5l259.9 0 0-624.3-618 0L204.6 760.5 297.6 760.5zM204.5 7.4l0 56.8 618 0 0-56.8L204.5 7.4z"  horiz-adv-x="1024" />

    
    <glyph glyph-name="home1" unicode="&#58890;" d="M991.433874 453.290667 603.094065 857.478095C578.956922 882.590476 547.042255 896 512.470065 896 477.897874 896 445.300541 882.590476 421.187779 857.478095L32.823589 453.290667C-7.234316 411.574857-2.089935 375.515429 4.541684 360.448 9.271589 349.769143 27.703589 335.238095 73.612922 335.238095L146.755779 335.238095 146.755779 18.285714C146.755779-52.321524 178.743589-127.634286 250.789303-127.634286L316.130255-127.634286 414.946255-128 414.946255-54.857143 414.946255 188.952381C414.946255 214.357333 403.29216 262.095238 439.327208 262.095238L512.470065 262.095238 585.612922 262.095238C621.64797 262.095238 609.993874 215.966476 609.993874 188.952381L609.993874-54.857143 609.993874-128 708.151589-127.634286 773.492541-127.634286C845.538255-127.634286 878.18435-52.321524 878.18435 18.285714L878.18435 335.238095 951.327208 335.238095C997.236541 335.238095 1015.010255 349.769143 1019.74016 360.448 1026.347398 375.515429 1031.51616 411.574857 991.433874 453.290667Z"  horiz-adv-x="1025" />

    
    <glyph glyph-name="wode3" unicode="&#58885;" d="M775.305791 295.226149 635.986063 354.012278c0 0-20.303302 20.813008-23.191638 48.846856l1.019413 19.623693c32.706156 22.172225 57.25701 55.473038 72.803053 94.720425 46.892982 1.189315 47.742492 114.174216 24.550854 126.322217C719.407997 735.442509 718.983242 893.366517 506.180853 895.575245c0 0 0 0.169902 0 0.169902-0.764559 0-1.359217-0.084951-2.123776-0.084951-0.764559 0-1.359217 0.084951-2.038825 0.084951 0 0 0-0.169902 0-0.169902C289.130911 893.366517 288.706156 735.442509 296.861457 643.525469 273.669819 631.462419 274.51933 518.392567 321.412311 517.203252c15.546043-39.247387 40.096897-72.5482 72.803053-94.720425l1.019413-19.623693C392.346441 374.825286 372.12809 354.012278 372.12809 354.012278L232.808362 295.226149C44.641779 188.357724 64.94508-20.621868 64.94508-20.621868s96.674299-106.868425 438.007632-107.378132l0 0c0.424755 0 0.764559 0 1.104364 0s0.764559 0 1.104364 0l0 0c341.333333 0.509706 438.007632 107.378132 438.007632 107.378132S963.472374 188.357724 775.305791 295.226149z"  horiz-adv-x="1024" />

    
    <glyph glyph-name="book1" unicode="&#60464;" d="M822.5 832.5 562.6 832.5l-72 0-121 0-72 0-93.1 0c-39.8 0-72-32.2-72-72l0-753.1c0-39.8 32.2-72 72-72l618.1 0c39.8 0 72 32.2 72 72L894.6 760.5C894.5 800.3 862.2 832.5 822.5 832.5zM490.6 760.5l0-209.9-8.7 8.7-33.3 33.3c-9.5 9.5-25 9.6-34.6 0.1l-44.4-43.9L369.6 760.5 490.6 760.5zM297.6 760.5l0-277.3c0-19.7 15.9-35.6 35.6-35.6l0 0c23.3 0 45.7 9.2 62.3 25.6l35.5 35.2 34.9-34.9c15.9-15.9 37.3-25.2 59.8-25.9l1.4 0c19.7 0 35.6 15.9 35.6 35.6L562.7 760.5l259.9 0 0-624.3-618 0L204.6 760.5 297.6 760.5zM204.5 7.4l0 56.8 618 0 0-56.8L204.5 7.4z"  horiz-adv-x="1024" />

    
    <glyph glyph-name="icon" unicode="&#58891;" d="M898.466935 548.43405 689.623443 548.43405c-39.937594 0-82.428338 30.705326-94.468558 68.273966l-60.770062 189.731202c-12.001335 37.56864-31.857569 37.626969-44.165896 0.155543L427.952792 616.552473c-12.308327-37.453007-54.975079-68.118424-94.912673-68.118424L125.476783 548.43405c-39.937594 0-46.381353-19.23304-14.346753-42.72201l171.123402-125.542274c32.034601-23.491017 48.00841-73.349565 35.473933-110.745267l-66.366523-198.578708c-12.484336-37.413098 3.626597-48.925293 35.750225-25.591865l166.963663 121.147174c32.17377 23.315008 84.813664 23.315008 116.986411 0l166.836773-121.147174c32.162514-23.333428 48.363498-11.784394 36.007075 25.668613L708.336644 269.329331c-12.407588 37.471426 3.616364 87.427188 35.56296 111.073748l169.093163 125.035738C944.93834 529.085376 938.355411 548.43405 898.466935 548.43405z"  horiz-adv-x="1024" />

    
    <glyph glyph-name="lingdang" unicode="&#58893;" d="M940.284008 75.054976C936.727501 157.68808 895.496208 231.008821 833.394826 278.241071L833.394826 502.483273C833.394826 632.007138 740.736234 740.96436 618.288333 766.70795L618.288333 771.834813C618.288333 830.918949 569.832208 879.259894 510.607293 879.259894L510.607293 879.259894C451.38238 879.259894 402.926255 830.918949 402.926255 771.834813L402.926255 766.70795C280.479494 740.96436 187.820903 632.007138 187.820903 502.483273L187.820903 278.241071C125.71952 231.008821 84.487087 157.68808 80.93058 75.054976L187.820903 75.054976 187.820903 74.3333 833.395966 74.3333 833.395966 75.054976 940.284008 75.054976 940.284008 75.054976ZM487.888173-119.764496 514.619132-119.764496C584.683427-119.764496 642.936743-66.915452 651.405251 0.790409L370.110562 0.790409C378.579068-66.915452 436.832384-119.764496 506.89753-119.764496L487.888173-119.764496Z"  horiz-adv-x="1024" />

    
    <glyph glyph-name="home" unicode="&#58883;" d="M829.868263 429.240685 572.96272 696.415541c-15.971379 16.605077-37.316419 25.722543-60.185497 25.722543-22.870294 0-44.215335-9.117467-60.157522-25.722543L195.684966 429.240685c-26.514362-27.609042-23.101393-51.430491-18.708078-61.381131 3.124703-7.086227 13.65309-26.499766 44.041402-26.499766l37.647256 0 0-205.546815c0-46.662552 33.542206-90.603 81.227676-90.603l109.354866 0L449.248087 262.738667c0 23.331276-3.528518 36.321477 20.322123 36.321477l86.427405 0c23.849425 0 20.306311-12.991417 20.306311-36.321477l0-217.52991 109.354866 0c47.670874 0 81.214296 43.940448 81.214296 90.603L766.873088 341.359788l37.661851 0c30.388312 0 40.930079 19.413539 44.041402 26.499766C852.969656 377.81141 856.381408 401.632859 829.868263 429.240685L829.868263 429.240685zM804.533723 383.672812"  horiz-adv-x="1024" />

    
    <glyph glyph-name="pinglun" unicode="&#58910;" d="M794.451-22.358l-215.029 148.823 215.029-0.002zM883.86 799.946h-742.582c-34.035 0-61.882-27.847-61.882-61.882v-549.717c0-34.035 27.847-61.882 61.882-61.882h742.582c34.035 0 61.882 27.847 61.882 61.882v549.717c-0.001 34.035-27.847 61.882-61.882 61.882zM815.789 343.946c0-25.526-20.885-46.412-46.412-46.412h-513.619c-25.526 0-46.412 20.885-46.412 46.412v0c0 25.526 20.885 46.412 46.412 46.412h513.619c25.526-0.001 46.412-20.885 46.412-46.412v0zM815.789 582.466c0-25.526-20.885-46.412-46.412-46.412h-513.619c-25.526 0-46.412 20.885-46.412 46.412v0c0 25.526 20.885 46.412 46.412 46.412h513.619c25.526 0 46.412-20.885 46.412-46.412v0z"  horiz-adv-x="1024" />

    
    <glyph glyph-name="tupian" unicode="&#58915;" d="M245.07109 558.426635c0 63.181995 51.188846 114.245997 114.370841 114.245997 63.183018 0 114.372887-51.193962 114.372887-114.245997 0-63.056128-51.252291-114.245997-114.372887-114.245997C296.328497 444.180638 245.07109 495.370507 245.07109 558.426635L245.07109 558.426635zM962.898899 763.131877l0-752.402255c0-40.59558-32.924877-73.520457-73.520457-73.520457L136.976186-62.790836c-40.59558 0-73.519434 32.924877-73.519434 73.520457L63.456752 763.131877c0 40.59558 32.923854 73.519434 73.519434 73.519434l752.402255 0C929.910577 836.588889 962.835454 803.664012 962.898899 763.131877L962.898899 763.131877zM887.477139 761.162012 139.008472 761.162012l0-689.026856 193.414081 253.80245c12.748349 14.843056 34.759665 17.316387 50.556443 5.643534l147.547451-131.24209 290.851251 381.492644c12.747325 14.842033 34.763758 17.320481 50.554396 5.64865l15.545044-13.827937L887.477139 761.162012 887.477139 761.162012zM887.477139 761.162012"  horiz-adv-x="1024" />

    
    <glyph glyph-name="guanzhu" unicode="&#58922;" d="M628.927571 540.092058 515.311931 426.473347c-1.985214 0.264013-4.016477 0.415462-6.072299 0.415462-24.739451 0-44.841278-20.071128-44.841278-44.830021 0-2.055822 0.172939-4.066619 0.446162-6.05081l-0.343831-0.344854 0.434905-0.440022c2.946099-19.297508 18.176988-34.528398 37.493939-37.483706l0.429789-0.430812 0.324388 0.329505c1.981121-0.264013 4.015454-0.420579 6.055926-0.420579 24.7548 0 44.856627 20.076244 44.856627 44.841278 0 2.050706-0.161682 4.075829-0.446162 6.054903l113.626897 113.632013 131.784442-20.071128 158.514223 158.498874L791.796986 663.915178l-34.101679-33.939997 122.818233-16.754592-95.257527-88.243787L665.455509 538.965397l-17.513886 122.590036 88.969311 84.765569 20.322861-116.275213 35.256992 35.281551L767.3809 830.384583 608.857467 671.87957 628.927571 540.092058zM509.240655 583.797465c14.456247 0 28.506241-1.518586 42.107003-4.399193l-7.119141 46.780443c-11.4334 1.610684-23.109324 2.476401-34.987862 2.476401-136.183635 0-246.579955-110.411669-246.579955-246.596328 0-136.184659 110.396319-246.576885 246.579955-246.576885 136.189775 0 246.596328 110.38711 246.596328 246.576885 0 11.863189-0.860601 23.550369-2.487657 34.977629l-46.76407 7.124258c2.89084-13.589506 4.405333-27.672246 4.405333-42.101887 0-111.416556-90.325192-201.750957-201.749934-201.750957-111.430882 0-201.740724 90.334401-201.740724 201.750957C307.499931 493.481484 397.804656 583.797465 509.240655 583.797465zM902.710075 471.830371c6.571672-28.870538 10.045797-58.922994 10.045797-89.772606 0-222.841298-180.656523-403.504984-403.51624-403.504984-222.844368 0-403.499867 180.664709-403.499867 403.504984 0 222.844368 180.656523 403.494751 403.499867 403.494751 30.860868 0 60.908208-3.467985 89.783863-10.034541l36.749996 36.754089c-40.138162 11.787464-82.588997 18.111496-126.533858 18.111496-247.618611 0-448.320679-200.717418-448.320679-448.325795 0-247.610424 200.702068-448.347285 448.320679-448.347285 247.609401 0 448.337051 200.73686 448.337051 448.347285 0 43.943838-6.344498 86.396719-18.10638 126.527718L902.710075 471.830371z"  horiz-adv-x="1024" />

    
    <glyph glyph-name="wenben" unicode="&#58886;" d="M682.67008 611.55328c-31.41632 0-56.89344 25.46688-56.89344 56.89344L625.77664 896l284.44672-284.44672L682.67008 611.55328zM682.67008 554.67008l227.55328 0 0-568.89344c0-62.83264-50.944-113.77664-113.77664-113.77664L227.55328-128c-62.83264 0-113.77664 50.944-113.77664 113.77664L113.77664 782.22336C113.77664 845.056 164.72064 896 227.55328 896l341.32992 0 0-227.55328C568.89344 605.60384 619.8272 554.67008 682.67008 554.67008zM256 42.67008l341.32992 0 0 56.89344L256 99.56352 256 42.67008zM256 213.32992l512 0 0 56.89344L256 270.22336 256 213.32992zM256 440.89344 256 384l512 0 0 56.89344L256 440.89344z"  horiz-adv-x="1024" />

    
    <glyph glyph-name="noun28593cc" unicode="&#58939;" d="M888.542 538.891l-342.030 342.038c-18.817 18.825-49.35 18.825-68.175 0l-342.022-342.038c-18.833-18.825-18.833-49.35 0-68.175h86.056v-346.666c0-26.622 21.588-48.21 48.21-48.21h166.274v221.438c0 26.622 21.58 48.202 48.21 48.202h54.743c26.63 0 48.21-21.58 48.21-48.202v-221.43h166.281c26.614 0 48.21 21.588 48.21 48.21l0 346.658h86.048c18.817 18.825 18.817 49.35-0.016 68.175z"  horiz-adv-x="1024" />

    
    <glyph glyph-name="wenhao" unicode="&#58943;" d="M511.889 767.255c-201.85 0-365.489-163.639-365.489-365.49 0-201.861 163.639-365.489 365.489-365.489 201.861 0 365.49 163.628 365.49 365.489-0 201.851-163.629 365.49-365.49 365.49v0zM533.389 186.771h-64.498v64.498h64.498v-64.498zM609.571 442.59c-6.56-12.146-19.893-27.483-40.070-46.547-20.146-19.452-32.417-33.708-36.364-41.728-3.736-7.601-5.879-22.024-5.879-42.767l6.131-17.281h-64.498l-0.976 17.7c0.725 21.782 4.23 40.427 10.644 55.932 6.478 15.694 19.988 34.002 40.532 55.397 18.927 19.705 30.759 33.645 35.052 40.994 3.758 6.436 5.72 14.938 5.72 25.668 0 16.072-4.913 28.365-14.802 37.718-10.056 9.511-23.892 14.35-42.116 14.35-38.905 0-51.922-27.147-55.554-75.763v0h-64.498l0.189 6.466c0.714 22.36 3.569 40.175 8.734 53.58 5.312 13.794 14.193 26.265 26.455 37.351 12.093 10.929 25.678 19.022 40.647 24.219 14.718 5.102 29.918 7.653 45.549 7.653 33.151 0 60.814-9.732 82.376-29.299 21.898-19.862 32.89-46.631 32.89-79.384-0-16.837-3.349-31.65-10.162-44.258v0zM609.571 442.59z"  horiz-adv-x="1024" />

    
    <glyph glyph-name="set" unicode="&#58969;" d="M428.324 384.013c0-46.597 37.456-84.372 83.661-84.372s83.661 37.776 83.661 84.372c0 46.597-37.456 84.372-83.661 84.372-46.204 0-83.661-37.776-83.661-84.372zM905.952 284.586l-65.362 37.994c3.665 19.986 6.065 40.366 6.065 61.433 0 21.040-2.425 41.448-6.065 61.433l65.363 38.020c26.683 15.53 35.78 49.964 20.381 76.858l-55.738 97.397c-15.397 26.894-49.542 36.148-76.225 20.592l-65.994-38.39c-30.822 26.419-65.863 48.066-104.832 61.988v47.722c0 31.033-24.968 56.24-55.792 56.24h-111.53c-30.822 0-55.818-25.207-55.818-56.24v-47.722c-38.944-13.921-73.984-35.569-104.806-61.988l-65.994 38.39c-26.656 15.53-60.801 6.276-76.198-20.592l-55.765-97.423c-15.397-26.894-6.276-61.328 20.381-76.858l65.336-38.020c-3.665-19.959-6.065-40.393-6.065-61.433 0-21.067 2.425-41.448 6.065-61.433l-65.336-37.994c-26.656-15.503-35.78-49.938-20.381-76.831l55.764-97.423c15.371-26.894 49.516-36.148 76.198-20.592l65.994 38.416c30.822-26.445 65.863-48.092 104.806-62.014v-47.75c0-31.059 24.968-56.24 55.818-56.24h111.53c30.822 0 55.792 25.179 55.792 56.24v47.749c38.97 13.895 74.010 35.569 104.832 62.014l65.994-38.416c26.683-15.556 60.828-6.276 76.225 20.592l55.764 97.423c15.397 26.894 6.276 61.328-20.408 76.858zM511.985 243.375c-77.016 0-139.425 62.963-139.425 140.638s62.409 140.612 139.425 140.612c77.042 0 139.478-62.937 139.478-140.612s-62.436-140.638-139.478-140.638z"  horiz-adv-x="1024" />

    
    <glyph glyph-name="gou" unicode="&#58892;" d="M768 789.312 256 789.312c-70.656 0-128-57.344-128-128l0-512c0-70.656 57.344-128 128-128l512 0c70.656 0 128 57.344 128 128l0 512C896 731.968 838.656 789.312 768 789.312zM438.272 160.064 195.968 398.976l55.68 52.544 184.64-184.96 371.776 371.648 50.944-57.344L438.272 160.064z"  horiz-adv-x="1024" />

    
    <glyph glyph-name="gou1" unicode="&#58887;" d="M922.448077 848.59433 132.175644 848.59433c-29.104026 0-52.685005-23.589274-52.685005-52.68183l0-790.242072c0-29.094605 23.580979-52.68183 52.685005-52.68183l790.272404 0c29.104026 0 52.685005 23.58825 52.685005 52.68183L975.133053 795.912467C975.133082 825.005056 951.552102 848.59433 922.448077 848.59433zM790.82199 602.346906 506.045645 138.242765c-9.894707-16.137523-26.959053-26.281574-45.66999-27.14624-0.875008-0.043008-1.731482-0.053248-2.590106-0.053248-17.750016 0-34.540032 8.421786-45.327155 22.87913L266.716262 329.269453c-18.951373 25.406669-14.010675 61.591757 11.010253 80.833024 25.07305 19.258573 60.694733 14.208614 79.645184-11.172454l95.85193-128.465818 241.079296 392.89129c16.600781 27.026534 51.637146 35.292774 78.325043 18.477875C799.277875 664.993792 807.421645 629.400064 790.82199 602.346906z"  horiz-adv-x="1024" />

    
    <glyph glyph-name="gou2" unicode="&#58903;" d="M792.277406-52.174678 240.011192-52.174678c-90.355951 0-163.827721 73.47177-163.827721 163.827721L76.183472 664.021585c0 90.355951 73.47177 163.827721 163.827721 163.827721l552.266214 0c90.355951 0 163.827721-73.47177 163.827721-163.827721l0-552.266214C956.105126 21.297092 882.633357-52.174678 792.277406-52.174678zM843.441591 612.141101c-17.191166 17.191166-45.024483 17.191166-62.215649 0L426.044169 256.857l-174.981513 174.981513c-17.191166 17.191166-45.024483 17.191166-62.215649 0-17.191166-17.191166-17.191166-45.024483 0-62.215649l206.089337-206.089337c8.595583-8.595583 19.851704-12.893375 31.107825-12.893375s22.512241 4.297792 31.107825 12.893375l386.289597 386.289597C860.632757 567.01429 860.632757 594.949935 843.441591 612.141101z"  horiz-adv-x="1024" />

    
    <glyph glyph-name="Hotel" unicode="&#58967;" d="M1197.714-128h-1188.571c-5.047 0-9.143 4.096-9.143 9.143v18.286c0 5.047 4.096 9.143 9.143 9.143h45.714c0 0 0 0 0 0v768.018c0 20.187 16.366 36.571 36.571 36.571h256v146.267c0 20.206 16.366 36.571 36.571 36.571h512c20.187 0 36.571-16.366 36.571-36.571v-219.41h182.857c20.187 0 36.571-16.384 36.571-36.571v-694.875c0 0 0 0 0 0h45.714c5.047 0 9.143-4.096 9.143-9.143v-18.286c0-5.047-4.096-9.143-9.143-9.143zM347.429 676.571h-256v-768h256v768zM548.571-91.429h182.857v219.429h-182.857v-219.429zM896 603.447v256h-512v-950.857h128v219.41c0 20.206 16.366 36.571 36.571 36.571h182.857c20.187 0 36.571-16.366 36.571-36.571v-219.41h128v694.857zM1115.429 603.429h-182.857v-694.857h182.857v694.857zM475.429 320v18.286c0 5.047 4.096 9.143 9.143 9.143h310.857c5.047 0 9.143-4.096 9.143-9.143v-18.286c0-5.047-4.096-9.143-9.143-9.143h-310.857c-5.047 0-9.143 4.096-9.143 9.143zM795.429 438.857h-310.857c-5.047 0-9.143 4.096-9.143 9.143v18.304c0 5.047 4.096 9.143 9.143 9.143h310.857c5.047 0 9.143-4.096 9.143-9.143v-18.304c0-5.047-4.096-9.143-9.143-9.143zM795.429 566.875h-310.857c-5.047 0-9.143 4.078-9.143 9.125v18.286c0 5.065 4.096 9.143 9.143 9.143h310.857c5.047 0 9.143-4.078 9.143-9.143v-18.286c0-5.047-4.096-9.125-9.143-9.125zM795.429 694.875h-310.857c-5.047 0-9.143 4.078-9.143 9.143v18.286c0 5.047 4.096 9.125 9.143 9.125h310.857c5.047 0 9.143-4.078 9.143-9.125v-18.286c0-5.065-4.096-9.143-9.143-9.143z"  horiz-adv-x="1207" />

    
    <glyph glyph-name="cha" unicode="&#58948;" d="M873.468588-38.457638 511.907902 323.098955 150.412708-38.396239c-16.812921-16.813944-44.102451-16.935718-60.97677-0.061398-16.785292 16.785292-16.692171 44.131103 0.094144 60.94914l361.523847 361.495194-361.523847 361.528963c-16.819061 16.812921-16.785292 44.191478 0 60.97677 16.842597 16.842597 44.131103 16.814967 60.97677-0.032746l361.496218-361.495194L873.497241 806.459684c16.84669 16.84669 44.102451 16.84669 60.915371 0.032746 16.876366-16.879436 16.814967-44.073798-0.027629-60.915371L572.885695 384.076748l361.561709-361.556593c16.874319-16.84669 16.874319-44.131103 0.027629-60.946071C917.688719-55.331957 890.344954-55.331957 873.468588-38.457638L873.468588-38.457638zM873.468588-38.457638"  horiz-adv-x="1024" />

    
    <glyph glyph-name="bijibennotebook43" unicode="&#58929;" d="M256 496.64C256 491.008 260.9664 486.4 267.1616 486.4l592.0256 0C865.3824 486.4 870.4 490.9568 870.4 496.64L870.4 527.36C870.4 532.992 865.4336 537.6 859.1872 537.6L267.1616 537.6C261.0176 537.6 256 533.0432 256 527.36L256 496.64zM256 87.04C256 81.408 260.9664 76.8 267.1616 76.8l592.0256 0C865.3824 76.8 870.4 81.3568 870.4 87.04l0 30.72c0 5.632-4.9664 10.24-11.2128 10.24L267.1616 128C261.0176 128 256 123.4432 256 117.76L256 87.04zM204.8 742.4 204.8 793.6 51.6608 793.6C22.6816 793.6 0 770.816 0 742.7584l0-819.8656C0-105.216 22.9888-128 51.3024-128l1023.744 0C1103.9232-128 1126.4-105.216 1126.4-77.1584L1126.4 742.7584C1126.4 770.816 1103.2576 793.6 1074.7392 793.6L921.6 793.6l0-51.2 153.6 0 0-819.2L51.2-76.8 51.2 739.9936 204.8 742.4zM409.6 793.6l51.2 0 0-51.2-51.2 0 0 51.2ZM256 793.6a1 2 0 1 0 102.4 0 1 2 0 1 0-102.4 0ZM256 291.84C256 286.208 260.9664 281.6 267.1616 281.6l592.0256 0C865.3824 281.6 870.4 286.1568 870.4 291.84l0 30.72c0 5.632-4.9664 10.24-11.2128 10.24L267.1616 332.8C261.0176 332.8 256 328.2432 256 322.56L256 291.84zM512 793.6a1 2 0 1 0 102.4 0 1 2 0 1 0-102.4 0ZM768 793.6a1 2 0 1 0 102.4 0 1 2 0 1 0-102.4 0ZM665.6 793.6l51.2 0 0-51.2-51.2 0 0 51.2Z"  horiz-adv-x="1127" />

    
    <glyph glyph-name="jiantou1-copy-copy-copy" unicode="&#59303;" d="M945.557 422.032h-733.558l187.319 180.328c4.795 4.796 4.795 12.57 0 17.367l-37.627 37.627c-4.796 4.795-12.57 4.795-17.367 0l-235.807-227.011c-0.272-0.229-0.541-0.465-0.797-0.721l-1.259-1.259-36.367-35.009c-2.567-2.568-3.746-5.99-3.564-9.352-0.188-3.369 0.991-6.8 3.562-9.372l37.627-36.267c0.243-0.241 0.496-0.463 0.752-0.68l235.852-227.050c4.796-4.797 12.57-4.797 17.367 0l37.627 37.627c4.795 4.795 4.795 12.569 0 17.367l-185.562 178.637h731.8c6.783 0 12.28 5.498 12.28 12.28v53.213c0 6.781-5.497 12.28-12.28 12.28z"  horiz-adv-x="1024" />

    
    <glyph glyph-name="menpiao2" unicode="&#58904;" d="M800 0.032 672 0.032 668.768 0.032 602.112 0.032C605.696 10.08 608 20.736 608 32.032 608 85.056 565.024 128.032 512 128.032 458.976 128.032 416 85.056 416 32.032 416 20.736 418.304 10.08 421.888 0.032L355.232 0.032 352 0.032 224 0.032C188.64 0.032 160 28.672 160 64.032L160 704C160 739.36 188.64 768.032 224 768.032L352 768.032 355.232 768.032 421.888 768.032C418.304 757.952 416 747.296 416 736 416 683.008 458.976 640 512 640 565.024 640 608 683.008 608 736 608 747.296 605.696 757.952 602.112 768.032L668.768 768.032 672 768.032 800 768.032C835.328 768.032 864 739.36 864 704L864 64.032C864 28.672 835.328 0.032 800 0.032ZM800 704.032 668.768 704.032C653.952 631.008 589.408 576.032 512 576.032 434.592 576.032 370.048 631.008 355.232 704.032L224 704.032 224 64 355.232 64C370.048 137.056 434.592 192 512 192 589.408 192 653.952 137.056 668.768 64L800 64 800 704.032ZM624 256 592 256C583.168 256 576 263.168 576 272L576 496C576 504.832 583.168 512 592 512L624 512C632.832 512 640 504.832 640 496L640 272C640 263.168 632.832 256 624 256ZM432 256 400 256C391.168 256 384 263.168 384 272L384 496C384 504.832 391.168 512 400 512L432 512C440.832 512 448 504.832 448 496L448 272C448 263.168 440.832 256 432 256Z"  horiz-adv-x="1024" />

    
    <glyph glyph-name="shezhi1" unicode="&#58918;" d="M966.54545 261.942083l0 240.476957-85.297688 0c-5.126764 15.349593-11.423167 32.332383-18.706037 47.951105l61.207014 60.944024L752.322437 782.609487l-58.886155-57.177234c-16.818037 8.849552-33.882692 16.382109-54.348816 22.655999L639.087467 829.877023l-240.476957 0 0-80.223113c-20.466124-6.194072-36.024471-13.808494-53.340859-22.720468l-55.145971 55.54506L118.895901 611.051179l58.121745-57.495482c-7.922437-16.590863-14.572904-30.670533-20.045545-51.136657L71.152527 502.41904l0-240.476957 92.456738 0c5.727445-15.349593 12.501732-32.047904 20.128433-46.544059l-64.642253-65.394383 171.427324-171.801854 67.939345 68.550259c13.249769-6.1777 24.798802-11.778254 40.148395-16.414855l0-95.852068 240.476957 0 0 97.417727c15.349593 4.66423 28.502148 9.998725 41.281195 16.101723l71.065546-70.178339 171.871439 171.426301-67.478857 69.205175c6.975878 13.554714 13.4575 28.135804 18.783809 43.485397L966.54545 261.943107zM519.110955 164.563242c-124.501572 0-225.431286 100.929714-225.431286 225.431286 0 124.501572 100.929714 225.430262 225.431286 225.430262s225.430262-100.92869 225.430262-225.430262C744.541217 265.492956 643.612527 164.563242 519.110955 164.563242zM519.109931 499.981525c-60.743456 0-109.986997-49.242518-109.986997-109.985974 0-60.743456 49.242518-109.986997 109.986997-109.986997s109.985974 49.242518 109.985974 109.986997C629.096928 450.739007 579.854411 499.981525 519.109931 499.981525z"  horiz-adv-x="1024" />

    
    <glyph glyph-name="tupian1" unicode="&#59012;" d="M329.142857 457.142857c40.393143 0 73.142857 32.749714 73.142857 73.142857 0 40.411429-32.749714 73.142857-73.142857 73.142857-40.356571 0-73.142857-32.731429-73.142857-73.142857C256 489.892571 288.786286 457.142857 329.142857 457.142857zM658.285714 502.857143 441.536 197.215086 329.142857 353.250743 146.285714 91.428571 877.714286 91.428571ZM950.857143 804.571429 73.142857 804.571429c-20.214857 0-36.571429-16.374857-36.571429-36.571429l0-768c0-20.214857 16.356571-36.571429 36.571429-36.571429l877.714286 0c20.214857 0 36.571429 16.356571 36.571429 36.571429L987.428571 768C987.428571 788.196571 971.072 804.571429 950.857143 804.571429zM914.285714 36.571429 109.714286 36.571429 109.714286 731.428571l804.571429 0L914.285714 36.571429z"  horiz-adv-x="1024" />

    
    <glyph glyph-name="wode4" unicode="&#58977;" d="M495.104 345.6c-162.304 0-294.4-88.576-294.4-198.144 0-37.376 25.088-51.712 98.816-62.976 57.344-8.704 124.928-8.704 197.12-8.704 73.728 0 146.432 0 198.144 8.704 72.704 11.776 97.792 25.6 97.792 62.976C792.064 257.024 657.92 345.6 495.104 345.6L495.104 345.6zM496.64 531.456m-160.256 0a31.3 31.3 0 1 0 320.512 0 31.3 31.3 0 1 0-320.512 0Z"  horiz-adv-x="1024" />

    
    <glyph glyph-name="xingchengfenxiang01tian" unicode="&#59011;" d="M520.564364 876.706909c-204.846545 0-373.806545-159.371636-373.806545-356.002909 0-339.432727 373.806545-641.559273 373.806545-641.559273S894.370909 193.722182 894.370909 520.704C894.370909 717.335273 727.552 876.706909 520.564364 876.706909zM520.564364 311.691636c-111.918545 0-202.728727 88.971636-202.728727 198.656 0 109.707636 90.810182 198.725818 202.728727 198.725818 111.895273 0 202.682182-88.994909 202.682182-198.725818C723.246545 400.64 634.600727 311.691636 520.564364 311.691636z"  horiz-adv-x="1024" />

    
    <glyph glyph-name="zan" unicode="&#58949;" d="M933.647179 489.397469M728.421075-24.892691M251.751744 0.969327M886.540302-65.610044M325.0921 11.541103 325.0921 437.570079c0 18.034748 5.92085 33.404808 23.652699 37.465287 20.61348 4.720511 162.285107 112.056122 164.648944 180.299389 0.232291 6.812149-1.566682 14.923898-1.675152 23.511483-0.473791 37.637202-2.035356 94.517677 25.604144 122.248252 12.025894 12.063757 31.169907 17.5804 50.322106 17.931395 26.933419 0.493234 44.969191-6.279007 57.201793-19.760043 32.894178-36.258809 25.593911-129.510656 11.835559-257.293971l-2.030239-14.178931 18.570961-2.7793c34.462906 2.635013 130.747833 7.838525 162.088632 0.381693 33.3035-7.92653 56.94392-24.615631 70.282716-49.608861 20.6012-38.601156 16.46295-96.317673-12.290931-171.543981-38.440497-100.561323-93.564979-252.334006-173.556824-297.739125l-390.762775 0.135076M295.749818-12.983453l0-4.551666 0 0L295.749818 437.565986c0 24.76094 17.72571 46.000684 42.36897 51.637054 21.74935 6.615675 154.973584 109.904109 156.921959 166.623925 0.257873 6.53074 0.276293 14.240329 0.161682 22.38994-0.487094 40.577161-1.165546 101.072977 30.78412 133.103484 13.582343 13.672394 35.82288 21.779026 60.924581 22.2477 29.743418 0.710175 53.085032-7.468089 68.615751-24.575722 37.022195-40.832987 30.238698-132.847657 15.624862-268.563642l-0.053212-0.397043 2.666736-0.397043c15.10093 1.078565 127.514185 8.773827 164.937516-0.099261 37.623899-8.944719 64.473407-28.111245 79.860862-56.961316 22.666232-42.450834 18.769482-104.19713-11.54801-183.462428l-4.813632-12.607132c-39.629579-104.011912-93.872994-246.471484-175.195138-292.614407l-9.258874-1.873674L295.749818-12.983453zM589.954443 796.616502c-0.802272 0-1.604544 0-2.435469 0-17.249873 0-32.43676-1.458211-40.575114-9.664104-23.353894-23.397896-22.694885-74.614371-22.265096-109.809965 0.11461-9.200546 0.229221-16.422018-0.028653-23.336498-2.693342-78.101799-155.928329-187.925067-179.911556-193.434547-11.261485-2.569522-19.646456-11.661597-19.646456-22.806425l0-421.246043 389.979946 4.657067c70.576405 43.274596 124.026758 182.923146 159.414733 275.775904l4.947685 12.635785c27.221991 71.14434 31.67235 124.840286 13.104459 159.595858-11.261485 21.140483-31.659047 35.366486-60.714803 42.266639-26.276457 6.274914-110.533442 2.854001-157.526733-0.737804l-1.653663-0.127913-34.552957 5.167696 3.956102 28.41005c12.866029 119.544677 20.461007 209.908754-8.337899 241.626129C627.835192 792.078139 616.947214 796.616502 589.954443 796.616502zM237.065254 11.541103 150.696164 11.541103c-29.482475 0-60.343343 13.111622-60.343343 42.327014L90.352821 413.544897c0 29.215392 30.861892 63.225997 60.343343 63.225997l67.663052 0c18.442024 0 18.705014-25.142633 18.705014-43.416835L237.06423 11.541103 237.065254 11.541103zM266.407536-17.535119 150.706397-17.535119c-37.537941 0-60.353576 34.196847-60.353576 71.394027L90.352821 413.54285c0 37.183877 22.815635 63.228043 60.353576 63.228043l67.653843 0c26.505677 0 48.047296-17.156752 48.047296-43.421952L266.407536-17.535119zM150.706397 447.694671c-21.348214 0-31.011294-12.997012-31.011294-34.150798l0-359.683942c0-21.154809 9.66308-42.317805 31.011294-42.317805l86.358857 0L237.065254 433.348941c0 10.236132-8.389064 14.34573-18.705014 14.34573L150.706397 447.694671z"  horiz-adv-x="1024" />

    
    <glyph glyph-name="guanzhu1" unicode="&#58914;" d="M1002.180741 416.433872v-82.665131c-0.746575-5.153777-1.360693-10.331636-2.311975-15.38908-4.443326-24.143275-7.465751-48.720046-13.811639-72.297369-27.057327-100.161479-81.220146-183.236021-160.561813-249.813662-42.590905-35.787439-90.335587-63.181928-142.475429-82.532674-34.282247-12.800151-69.491692-21.879467-105.821-26.274626-8.272534-0.987406-16.545068-2.27585-24.745352-3.431838h-82.66513c-4.961112 0.7827-9.898141 1.758064-14.919461 2.287892a445.717377 445.717377 0 0 0-89.625136 18.724585C273.559567-66.238973 196.782747-14.978163 134.732723 58.113948a480.384953 480.384953 0 0 0-85.09752 146.280553c-17.809429 48.479215-28.201272 98.511789-29.766672 150.266302-0.096332 2.865885-0.698409 5.743812-1.035572 8.633779v22.469503c0.758617 9.729559 1.011489 19.519326 2.336058 29.176636 3.419796 24.299815 5.563189 49.009043 11.234751 72.779031 25.27518 105.965498 79.883536 194.169734 163.150742 264.516375a482.335681 482.335681 0 0 0 144.245535 84.013782c48.98496 18.206799 99.583485 28.622726 151.928033 30.139959 2.938134 0.072249 5.840144 0.662284 8.754195 1.011489h22.397253c1.926645-0.31308 3.829208-0.746575 5.743812-0.927198 22.011924-2.131351 44.168346-3.154882 65.975564-6.538553 34.14979-5.370524 67.203801-15.027834 99.318571-27.936359 76.511906-30.85041 141.355566-77.860558 194.506897-140.922071a485.490563 485.490563 0 0 0 86.024718-149.652183c11.680288-32.536225 20.049154-65.891273 24.275732-100.221686 1.083738-8.260492 2.311975-16.48486 3.455921-24.769435zM721.107257 295.127459c50.767107 108.036642 22.300921 250.500029-92.322441 328.312422C516.220558 699.927704 363.642282 679.360764 275.149049 570.324675a263.252014 263.252014 0 0 1 17.965969-351.805454c92.936559-93.911923 223.526993-92.840226 299.448864-52.681711-5.755853 10.391844-11.415374 20.771646-17.135102 31.103282-107.362316-47.094439-219.613495-8.128035-279.170922 73.959101-61.748986 85.049354-58.979433 206.861511 18.664378 289.635015C380.945966 630.929715 488.898317 655.915897 584.568304 607.364433c46.624819-23.613448 81.400769-59.713967 103.111655-107.338233 28.189231-61.893484 27.864109-124.605793 1.986853-187.61914 10.572467-5.840144 20.831854-11.523748 31.440445-17.279601z m-187.763638-21.421889c-5.3344 9.777726-10.536342 19.182163-15.54562 28.682934-1.517233 2.82976-3.082633 3.130799-6.129141 2.107269-15.076-5.213984-30.657745-6.080975-46.299698-3.516128-25.082515 4.250661-46.432155 15.533579-63.242136 34.920448-22.433378 25.853173-30.031586 56.125589-23.86632 89.095309 4.961112 26.864662 19.483202 49.021084 42.217618 64.735286 28.189231 19.447077 58.907184 24.251649 91.937111 14.221052 42.542739-12.95669 72.092663-52.778043 72.839238-96.850057 0.228789-11.740496-1.986853-23.517116-3.203048-35.835605 4.407201-2.360141 9.669352-5.310316 15.027835-8.212326 5.238067-2.877927 10.415927-5.623396 15.810534-8.429074 23.974694 64.952034-0.590035 135.563588-60.027047 171.302861a140.705323 140.705323 0 0 1-182.019826-33.12626c-37.268547-45.950493-44.758381-116.995543-2.781594-173.097049 39.604605-52.946624 109.301003-69.600066 165.282094-45.99866z m132.492997-189.377203c0.529827 0.120415 1.09578 0.288997 1.697856 0.433495V219.807665h136.129541c0.096332 0.433495 0.240831 0.842907 0.276955 1.240278-100.908054 55.391056-201.767942 110.649655-302.688037 166.028669-0.276955-0.373288-0.565952-0.71045-0.86699-1.071697 55.162267-100.546808 110.312492-201.141782 165.450675-301.676548z"  horiz-adv-x="1024" />

    
    <glyph glyph-name="shoucang3" unicode="&#58908;" d="M1020.41088 496.2048l-351.82592 51.14368L511.22688 866.12992 353.85856 547.34848 2.03776 496.2048l254.55104-248.14592-60.05248-350.40256 314.69056 165.43232 314.68544-165.43232-60.05248 350.40256 254.55104 248.14592z"  horiz-adv-x="1024" />

    
    <glyph glyph-name="zan1" unicode="&#59052;" d="M886.596 472.462H648.012C740.452 813.915 584.305 831.36 584.305 831.36c-66.202 0-52.461-52.34-57.46-61.061 0-166.986-177.372-297.837-177.372-297.837v-473.547c0-46.728 63.7-63.555 88.685-63.555H796.66c33.728 0 61.206 88.483 61.206 88.483 88.694 301.569 88.694 391.292 88.694 391.292 0 62.308-59.964 57.327-59.964 57.327z m-635.029-0.155H108.7c-29.513 0-29.979-28.976-29.979-28.976l29.513-477.593c0-30.378 30.445-30.378 30.445-30.378H262.34c25.763 0 25.53 20.095 25.53 20.095V436.09c0 36.682-36.304 36.216-36.304 36.216z m0 0"  horiz-adv-x="1024" />

    
    <glyph glyph-name="home2" unicode="&#58888;" d="M803.873-127.126h-119.037c-50.012 0-95.57 46.075-95.57 96.678v207.386l-4.639 4.708h-144.212l-4.627-4.708v-207.387c0-48.791-47.343-96.678-95.57-96.678h-119.026c-50.025 0-95.58 46.075-95.58 96.678v363.845l-4.628 4.707h-44.606c-34.602 0-61.397 14.642-71.694 39.129-8.521 20.299-3.247 43.699 13.771 61.069 31.389 32 88.509 91.677 152.214 158.233 79.931 83.507 170.522 178.148 233.526 242.442 69.363 70.788 150.039 70.822 219.403-0.011 63.955-65.244 154.41-160.892 234.228-245.282 63.185-66.817 117.77-124.514 148.457-155.857 16.996-17.312 22.223-40.758 13.647-61.182-10.115-24.124-36.777-38.541-71.264-38.541h-44.581l-4.641-4.707v-363.845c0-48.79-47.342-96.676-95.57-96.676zM420.998 228.005h183.047l31.571-32.055v-226.397c0-25.391 24.373-50.33 49.221-50.33h119.036c20.594 0 49.223 25.346 49.223 50.33v382.854l31.569 32.045h64.001c16.769 0 26.411 5.092 28.537 10.139 1.833 4.356-2.602 9.358-4.005 10.795-31.005 31.638-85.702 89.481-149.045 156.445-79.684 84.254-169.978 179.744-233.639 244.694-51.325 52.368-101.916 52.334-153.207 0.011-62.823-64.102-153.312-158.641-233.152-242.046-63.875-66.727-121.131-126.55-152.598-158.641-2.252-2.297-5.782-6.743-4.141-10.659 2.172-5.171 12.164-10.739 28.969-10.739h64l31.581-32.045v-382.855c0-24.441 25.313-50.33 49.232-50.33h119.026c22.54 0 49.222 27.293 49.222 50.33v226.397l31.556 32.057z"  horiz-adv-x="1024" />

    
    <glyph glyph-name="tupian2" unicode="&#58930;" d="M345.6 467.2c44.8 0 83.2 38.4 83.2 83.2 0 44.8-38.4 83.2-83.2 83.2s-83.2-38.4-83.2-83.2c0-44.8 38.4-83.2 83.2-83.2z m473.6-192L672 505.6 448 224l-51.2 51.2-192-198.4h614.4V275.2zM864-64H160c-51.2 0-96 44.8-96 96V736c0 51.2 44.8 96 96 96h704c51.2 0 96-44.8 96-96v-704c0-51.2-44.8-96-96-96zM160 768c-19.2 0-32-12.8-32-32v-704c0-19.2 12.8-32 32-32h704c19.2 0 32 12.8 32 32V736c0 19.2-12.8 32-32 32H160z"  horiz-adv-x="1024" />

    
    <glyph glyph-name="tupian3" unicode="&#59048;" d="M977.4 896H46.6C20.8 896 0 874.5 0 847.8v-927.5c0-26.7 20.8-48.2 46.6-48.2h930.9c25.7 0 46.6 21.5 46.6 48.2V847.8C1024 874.4 1003.2 896 977.4 896z m-20.3-67.3v-699L812.5 292.5c-8.5 9.9-20.6 15.6-33.4 15.6-12.8 0-25-5.7-33.4-15.6l-115.9-136-351.4 412.7c-8.5 9.9-20.6 15.6-33.4 15.6-12.8 0-24.9-5.7-33.4-15.6L67 396.4V828.7h890.1z m-267-428.3c73.7 0 133.5 61.9 133.5 138.2 0 76.4-59.8 138.2-133.5 138.2-73.8 0-133.5-61.9-133.5-138.2-0.1-76.4 59.7-138.2 133.5-138.2z m0 214.5c40.6 0 73.7-34.2 73.7-76.3 0-42-33.1-76.3-73.7-76.3-40.7 0-73.7 34.2-73.7 76.3 0 42.1 33 76.3 73.7 76.3z"  horiz-adv-x="1024" />

    
    <glyph glyph-name="wenben1" unicode="&#59581;" d="M682.67 611.553c-31.416 0-56.893 25.467-56.893 56.894V896l284.446-284.447H682.67z m0-56.883h227.553v-568.893c0-62.833-50.944-113.777-113.776-113.777H227.553c-62.832 0-113.776 50.944-113.776 113.777V782.223C113.777 845.056 164.72 896 227.553 896h341.33v-227.553c0.01-62.843 50.944-113.777 113.787-113.777zM256 42.67h341.33v56.894H256v-56.894z m0 170.66h512v56.893H256v-56.893z m0 227.563V384h512v56.893H256z"  horiz-adv-x="1024" />

    
    <glyph glyph-name="lingdang1" unicode="&#58889;" d="M512-128a136.3456 136.3456 0 0 1 136.5248 136.6016H375.4752A136.5248 136.5248 0 0 1 512-128z m364.1088 273.0496c-45.5168 0-45.5168 180.8128-45.5168 180.8128v126.5664c0 159.3856-96.4096 293.9392-228.7872 337.6128A91.0848 91.0848 0 0 1 512 896a91.0848 91.0848 0 0 1-89.7792-106.0608c-125.696-43.8272-228.8128-178.3552-228.8128-337.536v-125.312s0-180.4544-44.3392-182.0416c-26.4192 0-46.6688-20.352-46.6688-45.4912 0-25.2928 20.3776-45.4912 45.4912-45.4912h728.192c25.2416 0 45.4912 20.352 45.4912 45.4912a45.3632 45.3632 0 0 1-45.4656 45.4912z"  horiz-adv-x="1024" />

    
    <glyph glyph-name="mudedi" unicode="&#58899;" d="M498.941 839.668c-201.313 0-365.01-163.695-365.01-365.012 0-117.803 54.91-196.834 126.82-288.161 58.814-74.668 138.479-169.553 234.342-242.609l11.027-8.445 11.259 8.445c99.364 75.241 191.896 177.189 253.87 279.369 48.075 79.609 92.701 165.075 92.701 251.572 0.001 201.146-163.692 364.841-365.009 364.841z m6.261-531.866c-92.015 0-166.796 74.897-166.796 166.854S413.187 641.51 505.202 641.51c92.013 0 166.796-74.897 166.796-166.854s-74.783-166.854-166.796-166.854z"  horiz-adv-x="1024" />

    
    <glyph glyph-name="gonggeshitu" unicode="&#59439;" d="M320 576H128V768h192v-192z m288 192H416v-192h192V768z m288 0H704v-192h192V768zM320 480H128v-192h192V480z m288 0H416v-192h192V480z m288 0H704v-192h192V480zM320 192H128v-192h192V192z m288 0H416v-192h192V192z m288 0H704v-192h192V192z"  horiz-adv-x="1024" />

    
    <glyph glyph-name="settings" unicode="&#58927;" d="M1015.362 446.553c-3.45 8.328-10.077 14.752-18.329 17.855-3.962 2.324-10.724 3.604-17.208 2.559-22.995-1.067-45.35 3.882-67.108 14.825-21.8 10.943-37.18 27.304-46.225 49.19-9.002 21.822-10.858 43.707-5.546 65.657 6.173 26.097 20.899 48.070 40.995 63.34-6.631-5.532-3.559-1.757 0.28 3.853 3.797 5.589 5.162 11.604 4.074 18.11-2.736 15.758-8.785 29.745-17.419 41.749 0.568 0.679-6.493 10.406-14.855 19.173-22.412 23.401-50.195 41.474-81.379 52.257 37.991-16.209 18.104-7.36-3.536-3.643 24.463-6.592 17.701-6.976 10.001-10.218-7.679-3.2-13.887-6.847-18.601-10.943-15.017-16.382-33.81-27.261-56.314-32.658s-44.966-3.392-67.449 5.909c-21.779 9.044-37.969 23.507-48.55 43.345-10.602 19.881-15.828 39.975-15.7 60.282 0.469 6.613-0.555 13.652-3.114 21.096-2.56 7.509-7.999 12.927-16.318 16.425-6.421 2.645-15.572 5.119-27.389 7.381-12.361 2.447-26.585 3.862-41.135 3.892 2.078-0.002 0.671 0.015-0.739 0.015-12.459 0-24.615-1.298-36.339-3.767-11.591-2.465-21.766-7.478-29.338-14.901-3.541-3.072-5.845-7.381-7.039-12.948-1.152-5.525-1.92-10.495-2.218-14.91-0.96-4.117-2.816-10.9-5.589-20.329-6.914-22.401-17.606-41.808-31.469-58.486 5.859 3.63-12.502-16.947-34.698-32.397 25.148 20.618 15.613 13.43 4.691 8.908-22.419-8.831-44.646-10.346-66.681-4.586-27.586 7.178-50.833 22.728-67.504 43.733-0.733-1.685-14.244 5.684-29.158 9.58 20.681-8.006 15.177-7.238 8.714-8.325-8.021-1.216-16.404-4.693-25.192-10.516-23.157-15.475-41.89-35.81-55.065-59.646 6.659 16.748-11.128-10.847-21.753-41.773 22.125 45.851 16.984 37.042 13.55 28.659-3.2-7.701-4.394-16.084-3.626-25.085 0.811-9.002 3.669-15.678 8.66-20.009 16.062-15.7 28.328-35.111 36.818-58.255 8.468-23.123 8.063-45.99-1.259-68.516-9.044-21.928-24.915-38.524-47.632-49.808-22.718-11.284-45.286-16.83-67.705-16.596-12.5 0.64-22.632-5.717-30.418-19.049-4.458-7.189-7.871-17.321-10.218-30.248-2.368-13.076-3.456-26.131-3.328-39.42s1.344-25.832 3.584-37.713c2.24-11.839 6.357-20.542 12.351-26.045 7.381-7.615 16.084-11.967 26.152-13.119 20.123-1.629 38.72-6.381 55.908-13.782 11.762-4.204 31.342-17.606 46.946-34.7-9.363 10.812 0.54-3.609 4.27-20.356 5.632-13.799 6.549-34.746 0.32-54.413-6.229-19.625-15.956-35.41-29.117-47.291-9.642-8.831-15.593-16.34-17.79-22.59-2.218-6.25-2.624-12.372-1.28-18.131 1.813-8.383 5.887-17.534 12.201-27.752 6.314-10.132 14.121-20.030 23.336-29.501 9.236-9.45 18.793-18.174 28.712-26.045 9.876-7.914 19.326-13.673 28.306-17.406 7.701-3.2 15.508-4.373 23.379-3.413 7.85 0.789 14.996 4.458 21.416 10.879 15.038 16.425 34.364 28.157 57.978 35.367 23.614 7.167 46.353 6.207 68.153-2.837 25.334-10.33 44.874-30.437 54.218-55.509 7.002-12.324 11.908-34.572 10.735-57.439l0.981-0.384c-0.213-5.994 1.323-12.287 4.586-18.963 3.264-6.591 7.786-11.156 13.567-13.503 13.291-5.436 28.689-8.843 44.809-9.417-5.273-0.269 5.156-1.16 15.792-1.16 1.943 0 3.879 0.030 5.807 0.089 13.833 0.416 27.301 2.102 40.336 4.945 3.58 0.723 11.899 3.474 17.872 7.015 13.631 9.45 19.945 21.95 18.835 37.457-0.036 1.086-0.056 2.362-0.056 3.643 0 21.664 5.834 41.965 16.016 59.419 10.79 19.021 27.343 33.675 49.357 43.317 7.93 3.865 17.253 6.125 27.104 6.125 1.835 0 3.652-0.078 5.447-0.232 15.265-1.272 29.597-4.618 43.039-9.763-0.525 0.5 9.138-3.894 18.097-9.504 8.938-5.546 16.233-10.666 21.843-15.252 7.916-7.681 17.976-13.195 29.197-15.559-5.775 1.267 1.776 0.435 11.055 1.054 9.3 0.704 19.027 4.202 29.138 10.538 22.766 14.601 41.079 34.277 53.666 57.509-15.568-24.445-7.783-14.697-1.341-4.522 6.442 10.218 10.623 19.369 12.521 27.624 0.242 1.788 0.38 3.855 0.38 5.954 0 8.151-2.085 15.815-5.75 22.488-7.239 12.737-17.029 23.512-28.717 31.781 2.123-2.801-10.332 20.084-13.563 45.837-3.14 10.643-1.199 32.315 7.846 54.18 10.645 26.034 31.007 46.25 56.463 56.456 11.050 7.047 33.149 12.379 55.973 11.206 5.93-0.256 12.607 1.749 19.902 5.866 7.359 4.117 12.649 11.881 15.87 23.422 5.183 19.795 7.829 40.294 7.999 61.711 0.277 21.416-2.56 38.673-8.49 51.664zM512.054 113.169c-149.723 0-271.076 121.353-271.076 271.076s121.374 271.076 271.076 271.076c149.723 0 271.076-121.353 271.076-271.076s-121.353-271.076-271.076-271.076zM512.054 534.864c-0 0-0 0-0 0-83.173 0-150.598-67.425-150.598-150.598 0-83.173 67.425-150.598 150.598-150.598 0 0 0 0 0 0 83.173 0 150.598 67.425 150.598 150.598 0 83.173-67.425 150.598-150.598 150.598z"  horiz-adv-x="1024" />

    
    <glyph glyph-name="shenglve" unicode="&#58905;" d="M599.331 743.896c0 49.507-40.129 89.636-89.637 89.637s-89.636-40.129-89.637-89.637 40.129-89.636 89.637-89.637 89.636 40.129 89.637 89.637v0zM599.33 385.351c0 49.507-40.129 89.635-89.636 89.635s-89.637-40.128-89.636-89.635 40.129-89.636 89.637-89.637 89.636 40.129 89.637 89.637v0zM599.33 26.804c0 49.507-40.129 89.636-89.637 89.637s-89.636-40.129-89.637-89.637c0-49.507 40.129-89.636 89.637-89.637s89.636 40.129 89.637 89.637v0zM599.33 26.804z"  horiz-adv-x="1024" />

    
    <glyph glyph-name="wode5" unicode="&#59025;" d="M512 384c140.8 0 256 115.2 256 256S652.8 896 512 896 256 780.8 256 640s115.2-256 256-256z m0-128C339.2 256 0 172.8 0 0v-128h1024V0c0 172.8-339.2 256-512 256z"  horiz-adv-x="1024" />

    
    <glyph glyph-name="fangdajing" unicode="&#59013;" d="M261.696 336.768a256 256 0 1 0 380.48 342.592 256 256 0 0 0-380.48-342.592z m629.312-376.192a32 32 0 0 0-51.776-37.632l-225.664 310.72c41.024 22.464 41.024 22.464 51.776 37.568l225.664-310.656z m-201.28 761.6a320 320 0 1 1-475.584-428.224 320 320 0 0 1 475.584 428.224z"  horiz-adv-x="1024" />

    
    <glyph glyph-name="wenhao1" unicode="&#59049;" d="M512 896c-283.031 0-512-228.969-512-512s228.969-512 512-512c283.031 0 512 228.969 512 512-1.59 283.031-230.559 512-512 512zM542.211 83.478h-90.634v90.634h90.634v-90.634zM648.745 441.242c-9.54-17.491-28.621-38.161-55.652-65.193-28.621-27.031-46.112-47.702-50.882-58.832-4.77-11.13-7.95-30.211-7.95-60.422l7.95-23.851h-90.634l-1.59 25.441c1.59 30.211 6.36 57.242 14.311 77.913 9.54 22.261 28.621 47.702 57.242 77.913 27.031 27.031 42.932 47.702 49.292 57.242 4.77 9.54 7.95 20.671 7.95 36.571 0 22.261-6.36 39.752-20.671 52.472-14.311 12.72-33.391 20.671-58.832 20.671-54.062 0-73.143-38.161-77.913-106.534h-90.634v9.54c1.59 31.801 4.77 55.652 12.72 74.733s19.081 36.571 36.571 52.472c17.491 15.901 36.571 27.031 57.242 33.391 20.671 6.36 41.342 11.13 63.602 11.13 46.112 0 85.863-14.311 116.075-41.342 30.211-27.031 46.112-65.193 46.112-111.304 0-23.851-4.77-44.522-14.311-62.012z"  horiz-adv-x="1030" />

    
    <glyph glyph-name="jiudian1" unicode="&#58894;" d="M931.02 475.034c0 40.857-30.514 71.372-71.474 71.372-52.02 0.103-104.039 0-156.058 0h-5.222c-0.103 2.048-0.205 3.687-0.205 5.428V731.648c0 33.485-21.3 61.03-53.146 69.018-3.174 0.819-6.349 1.33-9.523 2.048H154.419c-3.993-0.922-7.987-1.536-11.878-2.765-27.955-9.216-44.544-28.16-49.664-57.14-0.103-0.819-0.512-1.535-0.717-2.252v-776.602h838.86v4.506 506.573zM651.47 13.004H138.752v4.302 663.961c0 33.997 22.323 64.307 53.555 72.704 5.632 1.536 11.571 2.15 17.408 2.15 123.597 0.103 247.091 0.103 370.688 0.103 33.69 0 63.59-26.112 69.53-60.314 0.921-5.324 1.433-10.854 1.433-16.281 0.103-220.365 0.103-440.73 0.103-661.095v-5.53z m232.857 3.38c0-1.024-0.102-2.15-0.204-3.38H698.266c-0.103 1.537-0.205 2.97-0.205 4.404 0 156.57 0 313.14-0.103 469.709 0 3.584 1.024 5.325 4.506 5.837 6.246 0.819 12.39 2.457 18.637 2.457 31.232 0.307 62.464 0.205 93.798 0.103 38.298-0.205 69.53-30.925 69.53-69.223 0-136.601-0.103-273.305-0.103-409.907z m0 0M558.08 383.386c25.702 0 46.694 20.89 46.694 46.49s-20.992 46.694-46.592 46.694c-25.702 0-46.694-20.89-46.694-46.592 0.102-25.6 20.992-46.592 46.592-46.592z m0 0M558.285 546.509c25.6 0 46.592 20.992 46.592 46.694 0 25.6-21.095 46.592-46.695 46.592-25.702 0-46.592-20.992-46.592-46.694 0-25.703 20.992-46.695 46.695-46.592z m0 0M395.06 546.509c25.6 0 46.694 20.992 46.694 46.592 0 25.6-20.992 46.694-46.592 46.694-25.703 0-46.592-20.89-46.592-46.592 0-25.805 20.787-46.694 46.49-46.694z m0 0M558.49 313.549c-25.498 0.205-46.797-20.787-46.9-46.387-0.102-25.805 20.685-46.695 46.388-46.797 25.804-0.103 46.796 20.582 46.899 46.285 0.102 25.6-20.787 46.694-46.387 46.899z m0 0M395.162 383.386c25.6 0 46.592 21.094 46.49 46.694-0.103 25.6-21.095 46.592-46.798 46.592-25.702 0-46.49-20.992-46.49-46.797 0.206-25.702 21.095-46.49 46.798-46.49z m0 0M231.936 546.509c25.702 0 46.592 20.89 46.592 46.592 0 25.702-20.89 46.592-46.592 46.592-25.702 0-46.49-20.89-46.49-46.592 0-25.805 20.788-46.592 46.49-46.592z m0 0M395.264 313.549c-25.6 0.205-46.694-20.787-46.797-46.49-0.102-25.805 20.583-46.694 46.387-46.797 25.805-0.102 46.695 20.583 46.797 46.388 0.307 25.497-20.685 46.694-46.387 46.899z m0 0M185.446 431.206c-0.41-26.112 19.968-47.513 45.67-47.82 26.01-0.308 47.002 20.172 47.412 46.182 0.41 25.395-20.275 46.592-45.773 47.104-25.395 0.41-46.899-20.07-47.309-45.466z m0 0M232.243 313.549c-25.6 0.205-46.694-20.685-46.797-46.387-0.102-25.805 20.48-46.797 46.285-46.797 25.805-0.103 46.592 20.377 46.9 46.285 0.204 25.497-20.685 46.592-46.388 46.899z m0 0"  horiz-adv-x="1024" />

    
    <glyph glyph-name="wenhao2" unicode="&#58950;" d="M511.828777 895.064947c66.370988 0 131.336617-12.632669 192.494211-37.496634 63.362363-25.665598 120.308326-63.563605 169.233511-112.287549 48.925186-48.925186 86.623062-105.871149 112.287549-169.233511 24.863965-61.357724 37.496634-126.123223 37.496634-192.494211 0-66.369876-12.632669-131.336617-37.496634-192.493098-25.665598-63.363474-63.562493-120.308326-112.287549-169.233512-48.925186-48.926298-105.871149-86.623062-169.233511-112.28866-61.357724-24.863965-126.123223-37.495522-192.494211-37.495522-66.369876 0-131.336617 12.631557-192.493098 37.495522-63.363474 25.665598-120.308326 63.563605-169.233512 112.28866-48.926298 48.925186-86.623062 105.871149-112.28866 169.2324C12.950654 252.41878 0.317985 317.184278 0.317985 383.554154c0 66.370988 12.632669 131.336617 37.495522 192.494211 25.66671 63.362363 63.563605 120.308326 112.28866 169.233511 48.925186 48.925186 105.871149 86.623062 169.233512 112.287549C380.492161 882.432278 445.258771 895.066059 511.828777 895.066059z m0.802745-217.958567c-53.537077 0-96.648478-14.437177-129.331978-43.111401-32.48337-28.874354-52.133941-70.179023-58.750471-124.318714l73.187648-8.621168c6.4164 40.504148 19.650571 69.978893 40.102775 89.027961 20.252074 19.049068 45.717542 28.472982 75.99392 28.472981 31.481607 0 57.948838-10.626919 79.605159-31.480495 21.65521-20.853577 32.48337-45.316169 32.483371-72.987518 0-15.23881-3.810258-29.474745-11.029403-42.308656-7.418163-12.832799-23.459718-30.27749-48.122441-51.933811-24.663835-21.85534-41.707153-38.297155-51.131066-49.726819-12.832799-15.640182-22.256712-31.079123-28.071609-46.319044-7.820647-20.250962-11.829924-44.513425-11.829924-72.384903 0-4.812022 0.20013-11.829924 0.40026-21.45508h68.375627c0.600391 28.472982 2.406011 49.125316 6.015027 61.757985 3.408886 12.632669 8.82241 23.86109 15.840313 33.686376s22.257824 24.863965 45.517411 45.517411c34.488009 30.67775 57.747596 56.544591 69.578632 77.99967 11.829924 21.253837 17.844951 44.714667 17.844951 69.978893 0 43.712903-16.843188 81.208426-50.729694 112.087418-34.087748 30.678862-79.203787 46.118914-135.948508 46.118914z m-0.601502-499.680869c-24.062332 0-43.712903-19.450441-43.712904-43.712903 0-24.06122 19.450441-43.711792 43.712904-43.711791 24.06122 0 43.711792 19.449329 43.711791 43.711791-0.20013 24.062332-19.650571 43.711792-43.711791 43.711792z"  horiz-adv-x="1024" />

    
    <glyph glyph-name="wh" unicode="&#58895;" d="M512 896c-283.031 0-512-228.969-512-512s228.969-512 512-512c283.031 0 512 228.969 512 512-1.59 283.031-230.559 512-512 512zM542.211 83.478h-90.634v90.634h90.634v-90.634zM648.745 441.242c-9.54-17.491-28.621-38.161-55.652-65.193-28.621-27.031-46.112-47.702-50.882-58.832-4.77-11.13-7.95-30.211-7.95-60.422l7.95-23.851h-90.634l-1.59 25.441c1.59 30.211 6.36 57.242 14.311 77.913 9.54 22.261 28.621 47.702 57.242 77.913 27.031 27.031 42.932 47.702 49.292 57.242 4.77 9.54 7.95 20.671 7.95 36.571 0 22.261-6.36 39.752-20.671 52.472-14.311 12.72-33.391 20.671-58.832 20.671-54.062 0-73.143-38.161-77.913-106.534h-90.634v9.54c1.59 31.801 4.77 55.652 12.72 74.733s19.081 36.571 36.571 52.472c17.491 15.901 36.571 27.031 57.242 33.391 20.671 6.36 41.342 11.13 63.602 11.13 46.112 0 85.863-14.311 116.075-41.342 30.211-27.031 46.112-65.193 46.112-111.304 0-23.851-4.77-44.522-14.311-62.012z"  horiz-adv-x="1030" />

    
    <glyph glyph-name="yingyonggongge" unicode="&#58916;" d="M0 870.442596h272.612313v-272.612313h-272.612313zM376.545757 870.442596h272.612313v-272.612313h-272.612313zM754.795341 870.442596h272.612313v-272.612313h-272.612313zM0 521.15807h272.612313v-272.612313h-272.612313zM376.545757 521.15807h272.612313v-272.612313h-272.612313zM754.795341 521.15807h272.612313v-272.612313h-272.612313zM0 170.169717h272.612313v-272.612313h-272.612313zM376.545757 170.169717h272.612313v-272.612313h-272.612313zM754.795341 170.169717h272.612313v-272.612313h-272.612313z"  horiz-adv-x="1027" />

    
    <glyph glyph-name="mudedi1" unicode="&#58926;" d="M499.328 896C265.9584 896 76.8 717.1584 76.8 496.5888c0-172.5696 258.6368-495.104 371.1488-604.1344 28.1344-27.264 74.368-27.264 102.5024 0 112.5376 109.0304 371.1744 431.4624 371.1744 604.1344C921.728 717.1584 732.672 896 499.328 896z m0-545.8688c-85.5296 0-154.88 65.5872-154.88 146.4576 0 80.8704 69.3504 146.432 154.88 146.432 85.5296 0 154.88-65.5616 154.88-146.432s-69.3504-146.4576-154.88-146.4576z"  horiz-adv-x="1024" />

    
    <glyph glyph-name="cha1" unicode="&#58909;" d="M82.9 46.4c-25.2-25.2-25.2-66.4 0-91.6 25.2-25.2 66.4-25.2 91.6 0L512 292.4l337.6-337.6c25.2-25.2 66.4-25.2 91.6 0 25.2 25.2 25.2 66.4 0 91.6L603.6 384l337.6 337.6c25.2 25.2 25.1 66.4 0 91.6-25.2 25.1-66.4 25.1-91.6 0L512 475.6 174.4 813.1c-25.2 25.2-66.4 25.1-91.6 0-25.1-25.2-25.1-66.4 0-91.6L420.4 384 82.9 46.4z"  horiz-adv-x="1024" />

    
    <glyph glyph-name="yijianfankui" unicode="&#59435;" d="M932.352 850.496H91.648C44.096 850.496 0 795.2 0 746.944v-568.704c0-48.256 38.528-87.488 85.952-87.488h595.84l170.304-173.248v173.248h86.016c47.488 0 85.952 39.232 85.952 87.488V746.944C1024 795.2 979.904 850.496 932.352 850.496zM334.784 418.688a43.328 43.328 0 0 0-42.944 43.712c0 24.128 19.2 43.712 42.944 43.712s43.008-19.584 43.008-43.712c0-24.128-19.2-43.712-43.008-43.712z m167.872 0a43.392 43.392 0 0 0-43.008 43.712c0 24.128 19.264 43.712 43.008 43.712 23.68 0 42.944-19.584 42.944-43.712 0-24.128-19.2-43.712-42.944-43.712z m171.904 0a43.328 43.328 0 0 0-42.944 43.712c0 24.128 19.2 43.712 42.944 43.712s42.944-19.584 42.944-43.712c0-24.128-19.2-43.712-42.944-43.712z"  horiz-adv-x="1024" />

    
    <glyph glyph-name="zan2" unicode="&#59081;" d="M1009.584986 485.406282h-313.09279S753.999035 926.292047 536.750977 894.343803c-31.948244-268.365248-255.585951-402.547872-255.585951-402.547872s-12.779298-549.509794 31.948244-594.237336c44.727541-44.727541 517.56155-19.168946 568.67874 0 63.896488 31.948244 178.910166 517.56155 127.792976 587.847687zM31.968724-102.441405h191.689463V485.406282H0.02048l31.948244-587.847687z"  horiz-adv-x="1024" />

    
    <glyph glyph-name="ziyouhang" unicode="&#58896;" d="M773.12 591.872h-41.984V797.696c0 45.056-36.864 81.92-81.92 81.92h-276.48c-45.056 0-81.92-36.864-81.92-81.92v-205.824H250.88c-56.32 0-102.4-46.08-102.4-102.4v-450.56c0-56.32 46.08-102.4 102.4-102.4h45.056v-13.312c0-22.528 18.432-40.96 40.96-40.96h10.24c22.528 0 40.96 18.432 40.96 40.96v13.312h245.76v-13.312c0-22.528 18.432-40.96 40.96-40.96h10.24c22.528 0 40.96 18.432 40.96 40.96v13.312h47.104c56.32 0 102.4 46.08 102.4 102.4v450.56c0 56.32-46.08 102.4-102.4 102.4zM377.856 766.976c0 16.896 13.824 30.72 30.72 30.72h215.04c16.896 0 30.72-13.824 30.72-30.72v-175.104h-276.48V766.976zM793.6 69.632c0-28.16-23.04-51.2-51.2-51.2H281.6c-28.16 0-51.2 23.04-51.2 51.2v389.12c0 28.16 23.04 51.2 51.2 51.2h460.8c28.16 0 51.2-23.04 51.2-51.2v-389.12zM346.624 441.856c-22.528 0-40.96-18.432-40.96-40.96v-276.48c0-22.528 18.432-40.96 40.96-40.96s40.96 18.432 40.96 40.96v276.48c0 22.528-18.432 40.96-40.96 40.96zM674.304 441.856c-22.528 0-40.96-18.432-40.96-40.96v-276.48c0-22.528 18.432-40.96 40.96-40.96s40.96 18.432 40.96 40.96v276.48c0 22.528-18.432 40.96-40.96 40.96z"  horiz-adv-x="1024" />

    
    <glyph glyph-name="cha2" unicode="&#58941;" d="M588.701 396.452l207.63 207.63c23.394 23.394 23.394 58.495 0 81.884s-58.495 23.394-81.884 0l-207.63-207.63-207.63 207.63c-23.394 23.394-58.495 23.394-81.884 0s-23.394-58.495 0-81.884l207.63-207.63-207.63-207.63c-23.394-23.394-23.394-58.495 0-81.884 11.705-11.705 26.326-17.55 40.947-17.55s29.238 5.847 40.947 17.55l207.63 207.63 207.63-207.63c11.705-11.705 26.326-17.55 40.947-17.55s29.238 5.847 40.947 17.55c23.394 23.394 23.394 58.495 0 81.884l-207.63 207.63z"  horiz-adv-x="1024" />

    
    <glyph glyph-name="mudedi2" unicode="&#59093;" d="M512 896C290.1 896 109.7 710.6 109.7 482.6c0-133.4 60.5-223 139.8-326.3 64.8-84.6 152.6-192.1 258.2-274.7l12.2-9.6 12.4 9.6c109.5 85.2 211.5 200.6 279.8 316.3 53 90.2 102.2 187.1 102.2 285C914.3 710.6 733.9 896 512 896z m6.9-602.3c-101.4 0-183.9 84.8-183.9 189s82.5 188.9 183.9 188.9 183.9-84.8 183.9-188.9c0-104.2-82.5-189-183.9-189z"  horiz-adv-x="1024" />

    
    <glyph glyph-name="mudedi3" unicode="&#58897;" d="M510.976694 330.217073c92.502787 0 167.490665 74.987878 167.490665 167.490665 0 92.501764-74.987878 167.490665-167.490665 167.490665s-167.490665-74.987878-167.490666-167.490665c0-92.502787 74.987878-167.490665 167.490666-167.490665z m0-390.81087S175.996386 218.55697 175.996386 497.706715c0 185.004551 149.975756 334.980307 334.980308 334.980307s334.980307-149.975756 334.980307-334.980307c0-279.149744-334.980307-558.300512-334.980307-558.300512z"  horiz-adv-x="1024" />

    
    <glyph glyph-name="tubiaozhizuomoban" unicode="&#58991;" d="M1019.441-12.935c0-32.182-26.087-58.268-58.271-58.268H63.819c-32.182 0-58.27 26.086-58.27 58.268v792.47c0 32.182 26.088 58.269 58.27 58.269h897.352c32.183 0 58.271-26.088 58.271-58.269v-792.47h-0.001z m-44.566 765.038c0 24.322-19.714 44.036-44.036 44.036H94.152c-24.319 0-44.036-19.714-44.036-44.036v-737.604c0-24.319 19.716-44.035 44.036-44.035h836.685c24.322 0 44.038 19.716 44.038 44.035V752.103zM259.392 682.8c-53.842 0-97.49-43.647-97.49-97.49 0-53.841 43.647-97.49 97.49-97.49 53.842 0 97.49 43.649 97.49 97.49-0.001 53.842-43.648 97.49-97.49 97.49z m52.923-97.49c0-29.228-23.695-52.923-52.923-52.923-29.229 0-52.923 23.695-52.923 52.923 0 29.229 23.694 52.923 52.923 52.923 29.228 0 52.923-23.694 52.923-52.923zM120.309 162.179l187.737 141.499 101.947-104.732 252.916 253.752 237.318-238.153 30.082 33.425-266.844 267.679-253.473-250.967-98.047 98.047L94.682 198.946l25.627-36.767z m795.252 16.713h-353.52v-44.567h353.52v44.567z m0-101.762H360.023v-44.567h555.538V77.13z"  horiz-adv-x="1024" />

    
    <glyph glyph-name="wode6" unicode="&#58951;" d="M512 383.488c114.176 0 206.336 88.576 206.336 197.632S625.664 778.752 512 778.752c-114.176 0-206.336-88.576-206.336-197.632s92.16-197.632 206.336-197.632z m37.376-93.696H476.672C372.736 289.792 107.52 201.216 107.52 92.16s83.968-97.28 187.904-97.28h438.272c103.936 0 187.904-11.776 187.904 97.28s-268.8 197.632-372.224 197.632z"  horiz-adv-x="1024" />

    
    <glyph glyph-name="arrow-fine-left" unicode="&#58898;" d="M402.752 749.248l-320-320c-24.992-24.992-24.992-65.504 0-90.496l320-320c24.992-24.992 65.504-24.992 90.496 0 24.992 24.992 24.992 65.504 0 90.496l-210.752 210.752h613.504c35.36 0 64 28.64 64 64 0 35.36-28.64 64-64 64h-613.504l210.752 210.752c12.48 12.512 18.752 28.864 18.752 45.248s-6.24 32.768-18.752 45.248c-24.992 24.992-65.504 24.992-90.496 0z"  horiz-adv-x="1024" />

    
    <glyph glyph-name="ic_send_px" unicode="&#59071;" d="M85.76 0L981.333333 384 85.76 768 85.333333 469.333333l640-85.333333-640-85.333333z"  horiz-adv-x="1024" />

    
    <glyph glyph-name="wode-" unicode="&#58906;" d="M512 256c-169.6 0-512-86.4-512-256v-128h1024v128c0 169.6-342.4 256-512 256zM512 384c140.8 0 256 115.2 256 256s-115.2 256-256 256-256-115.2-256-256 115.2-256 256-256z"  horiz-adv-x="1024" />

    
    <glyph glyph-name="fangdajing1" unicode="&#58959;" d="M435.218 835.59c-204.076 0-369.515-165.439-369.515-369.515 0-102.053 41.37-194.447 108.263-261.317h0.002c66.865-66.849 159.228-108.194 261.253-108.194 102.015 0 194.383 41.345 261.253 108.194 66.887 66.871 108.263 159.261 108.263 261.317-0.004 204.076-165.446 369.515-369.517 369.515zM660.531 240.701c-57.662-57.672-137.316-93.345-225.311-93.345s-167.656 35.671-225.311 93.345c-124.462 124.409-124.462 326.159 0 450.622 124.467 124.462 326.212 124.462 450.622 0 57.672-57.657 93.345-137.316 93.345-225.311 0-87.99-35.677-167.654-93.345-225.311zM948.812-47.586c6.443 6.41 10.431 15.277 10.431 25.075s-3.984 18.674-10.431 25.075l-171.388 171.361c-6.414 6.414-15.275 10.379-25.058 10.379-19.572 0-35.437-15.865-35.437-35.437 0-9.785 3.969-18.643 10.375-25.057l171.358-171.392c6.399-6.422 15.253-10.397 25.035-10.397 0.018 0 0.029 0 0.048 0 9.789-0.004 18.659 3.969 25.069 10.395z"  horiz-adv-x="1024" />

    
    <glyph glyph-name="wenhao3" unicode="&#58978;" d="M513.555338 895.997592c-282.77134 0-512.002408-229.231068-512.002408-512.002409S230.783998-128.007225 513.555338-128.007225 1025.557747 101.223843 1025.557747 383.995183 796.326679 895.997592 513.555338 895.997592z m0-841.01926c-36.69537 0-66.44398 29.747405-66.443979 66.44398s29.747405 66.44398 66.443979 66.44398c36.69537 0 66.44398-29.747405 66.44398-66.44398s-29.747405-66.44398-66.44398-66.44398z m117.672278 283.299964l-0.273343 0.422658c-30.029177-14.761716-71.260593-57.441729-71.260593-99.93269h-80.583149c0 83.310556 69.897492 148.91765 115.285645 171.754419 42.729383 28.756387 55.374198 48.882607 55.374198 85.692371 0 75.106659-61.104764 136.212627-136.212627 136.212627s-136.212627-61.107172-136.212627-136.212627h-80.583149c0 119.541123 97.254653 216.79698 216.79698 216.79698s216.79698-97.254653 216.79698-216.79698c-0.003612-86.528054-51.170498-126.894888-99.128315-157.936758z"  horiz-adv-x="1034" />

    
    <glyph glyph-name="gentuanyou" unicode="&#59060;" d="M930.594478 890.728621c-5.558829 3.51084-25.307302 13.458218-48.932326-8.703957-23.625025-22.162175-5.924542-5.558829-8.703957-8.338244-61.512835-58.513993-102.106918-97.060086-327.897789-21.211322a509.510595 509.510595 0 0 1-183.514511 27.135864 490.27412 490.27412 0 0 1-144.017565-27.721004c-79.798458-28.086717-127.048508-67.364235-129.023355-69.046512a35.766678 35.766678 0 0 1-4.607977-4.827405c-11.483371-7.167964-10.678804-22.60103-10.678804-34.742683 0-40.447798 340.332013-699.754216 317.95041-768.142445-29.695852-116.223419 79.871601-19.163333 65.389387 0 0 67.656805-152.06324 304.126479-120.173113 379.097533 31.890126 74.897911 56.173433 142.774143 270.042078 123.90338a227.107436 227.107436 0 0 1 113.517147 19.017048c2.267417 0.950852 4.461692 2.04799 6.802252 3.145127a312.318438 312.318438 0 0 1 93.402961 70.875075c45.275202 48.932327 85.284145 117.613126 109.640595 188.4882a362.786757 362.786757 0 0 1 17.846768 72.337924c2.194275 18.870763 2.779415 45.860342-17.042201 58.733421z m-60.708267-112.493152c-1.46285-12.434224-5.558829-27.574719-10.825089-44.03178-29.330139-90.916117-97.133229-159.450631-140.872439-175.468837-124.415378-45.567772-199.898429-24.722162-223.889166-24.722162-146.358125 0-170.27572-99.181218-209.260668-99.181218-32.914121-6.143969-136.776459 247.441049-136.776459 300.615639 0.804567 1.023995-3.071985 15.652493 28.964427 32.694694 31.963269 16.969058 40.81351 15.945063 75.702478 31.890126 27.135864 12.361081 49.956322 21.065038 138.385594 21.065038 17.042201 0 53.686589-8.045674 73.800774-10.605661 23.844452-3.071985 44.90949-9.947379 67.51052-17.993053 173.128277-61.95169 254.462728-24.210165 291.984825 11.410228l5.339402 5.119975c14.409071 13.531361 26.404439 7.460534 29.842137 5.339402 11.849084-8.118817 11.483371-24.575877 10.093664-36.132391z"  horiz-adv-x="1024" />

    
    <glyph glyph-name="shenglvehao" unicode="&#58900;" d="M528.3 626.8c57.3 0 103.7 46.4 103.7 103.7S585.5 834.2 528.3 834.2s-103.7-46.4-103.7-103.7S471 626.8 528.3 626.8z m0-138.3c-57.3 0-103.7-46.4-103.7-103.7S471 281.1 528.3 281.1 632 327.5 632 384.8s-46.5 103.7-103.7 103.7z m0-345.7c-57.3 0-103.7-46.4-103.7-103.7S471-64.6 528.3-64.6 632-18.2 632 39.1s-46.5 103.7-103.7 103.7z"  horiz-adv-x="1024" />

    
    <glyph glyph-name="lingdang2" unicode="&#58911;" d="M394.288469 8.533333h251.904a136.533333 136.533333 0 0 0-126.293333-136.533333 136.533333 136.533333 0 0 0-125.610667 136.533333z m452.608 142.677334c-40.277333 0-40.277333 180.224-40.277333 180.224V455.68a348.16 348.16 0 0 1-211.626667 335.189333c11.605333 6.144 11.605333 12.288 11.605334 12.288A92.16 92.16 0 0 1 520.581803 896a92.16 92.16 0 0 1-86.016-92.842667v-12.288a363.178667 363.178667 0 0 1-212.309334-335.189333v-124.245333s0-180.224-40.277333-180.224a45.738667 45.738667 0 0 1-45.738667-43.690667 40.96 40.96 0 0 1 38.229334-43.690667h672.426666a43.690667 43.690667 0 0 1 0 86.698667z"  horiz-adv-x="1024" />

    
    <glyph glyph-name="lingdang3" unicode="&#58901;" d="M512 781.7216m-101.7856 0a101.7856 101.7856 0 1 1 203.5712 0 101.7856 101.7856 0 1 1-203.5712 0ZM910.336 108.2368c-1.7408 0.8192-3.4816 1.7408-5.2224 2.6624-2.7648 1.4336-5.5296 2.8672-8.192 4.3008-71.0656 39.424-118.0672 106.0864-118.0672 181.3504V528.2816c0 118.6816-117.3504 214.8352-262.144 214.8352h-9.216c-144.7936 0-262.144-96.1536-262.144-214.8352v-231.6288c0-75.264-47.0016-141.9264-118.0672-181.3504-2.6624-1.536-5.4272-2.8672-8.192-4.3008-1.7408-0.9216-3.4816-1.7408-5.2224-2.6624-8.6016-6.4512-14.0288-15.7696-14.0288-26.0096V66.56c0-19.456 19.456-35.4304 43.2128-35.4304h737.9968c23.7568 0 43.2128 15.9744 43.2128 35.4304v15.6672c0 10.3424-5.4272 19.5584-13.9264 26.0096zM513.3312 128.512c-1.3312-1.024-2.6624-2.048-3.8912-3.1744 1.7408 1.024 3.4816 2.1504 5.2224 3.1744h-1.3312zM507.1872 128.512h1.3312c2.7648 1.7408 5.5296 3.4816 8.192 5.3248-3.2768-1.4336-6.5536-3.1744-9.5232-5.3248zM512-115.712c62.2592 0 114.5856 42.2912 129.8432 99.6352H382.1568c15.36-57.344 67.6864-99.6352 129.8432-99.6352z"  horiz-adv-x="1024" />

    
    <glyph glyph-name="gongge" unicode="&#58917;" d="M0 895.936h309.056v-308.928H0zM715.008 895.936H1024v-308.928h-308.992zM1.024 538.432h308.992v-308.928H1.024zM357.504 538.432h309.056v-308.928H357.504zM715.008 538.368H1024v-308.864h-308.992zM357.504 180.864h308.992V-128H357.504zM715.008 180.864H1024V-128h-308.992zM0 180.864h308.992V-128H0zM357.504 895.936h308.992v-308.928H357.504z"  horiz-adv-x="1024" />

    
    <glyph glyph-name="yijianfankui1" unicode="&#59115;" d="M878.9 896H145.1C64.9 896 0 845.3 0 782.7v-572.5C0 147.8 64.9 97 145.1 97h366.5l289.8-225-15.6 225h93c80.2 0 145.2 50.7 145.2 113.3V782.7C1024 845.3 959.1 896 878.9 896zM224.7 412.7c-49.4 0-89.4 41.7-89.4 93.3s40 93.3 89.4 93.3c49.3 0 89.3-41.7 89.3-93.3s-40-93.3-89.3-93.3z m280.6-0.1c-49.4 0-89.4 41.8-89.4 93.3s40 93.2 89.4 93.2c49.3 0 89.3-41.7 89.3-93.2 0.1-51.5-39.9-93.3-89.3-93.3z m286.9 1.4c-49.3 0-89.3 41.7-89.3 93.3 0 51.4 40 93.3 89.3 93.3s89.4-41.8 89.4-93.3-40.1-93.3-89.4-93.3z"  horiz-adv-x="1024" />

    
    <glyph glyph-name="miaoshuwenben" unicode="&#59088;" d="M138.971429 896h716.8c58.514286 0 102.4-43.885714 102.4-102.4v-819.2c0-58.514286-43.885714-102.4-102.4-102.4h-716.8c-58.514286 0-102.4 43.885714-102.4 102.4v819.2c0 58.514286 43.885714 102.4 102.4 102.4z m102.4-226.742857v-102.4h519.314285V669.257143h-519.314285z m0-204.8v-102.4h519.314285v102.4h-519.314285z m0-204.8v-102.4h387.657142v102.4h-387.657142z"  horiz-adv-x="1024" />

    
    <glyph glyph-name="mudedi4" unicode="&#58902;" d="M510.92 896C291.611 896 113.777 712.903 113.777 487.054c0-225.877 311.239-571.534 311.239-571.534 47.445-57.031 125.099-57.344 172.089 0.284 0 0 310.983 345.373 310.983 571.25C908.089 712.904 730.283 896 510.919 896z m0-585.074c-101.462 0-183.724 84.708-183.724 189.184 0 104.477 82.262 189.184 183.752 189.184 101.46 0 183.694-84.707 183.694-189.184 0-104.476-82.233-189.184-183.723-189.184z"  horiz-adv-x="1024" />

    
    <glyph glyph-name="wenben2" unicode="&#59017;" d="M670.3 595.1c-29.1 0-52.8 23.6-52.8 52.8V859l263.9-263.9H670.3z m0-52.8h211.1v-527.8c0-58.3-47.3-105.6-105.6-105.6H248.1c-58.3 0-105.6 47.3-105.6 105.6V753.4C142.6 811.7 189.8 859 248.1 859h316.7v-211.1c0-58.3 47.2-105.6 105.5-105.6z m-395.8-475h316.7v52.8H274.5v-52.8z m0 158.4h475v52.8h-475v-52.8z m0 211.1V384h475v52.8h-475z m0 0"  horiz-adv-x="1024" />

    
    <glyph glyph-name="feiji" unicode="&#59089;" d="M982.419133 444.469895c49.852632-24.899368 49.852632-96.040421 0-120.93979l-884.412632-442.206316C42.818291-146.297263-17.462973-91.567158 4.714712-33.953684l158.827789 412.968421a13.770105 13.770105 0 0 1 0 9.889684L4.714712 801.926737C-17.48992 859.540211 42.791343 914.297263 98.033448 886.676211l884.412632-442.206316z m-24.090948-48.181895L73.942501 838.494316a13.743158 13.743158 0 0 1-18.970947-17.219369L213.853238 408.252632c5.982316-15.629474 5.982316-32.875789 0-48.532211L54.944606-53.274947a13.743158 13.743158 0 0 1 18.970948-17.219369l884.385684 442.206316a13.743158 13.743158 0 0 1 0 24.576zM215.901238 357.052632h323.368421v53.894736H215.901238z"  horiz-adv-x="1024" />

    
    </font>
</defs>
</svg>
